<svg xmlns="http://www.w3.org/2000/svg" viewBox="0 0 204.15 44.09"><defs><style>.cls-1{fill:#009845;}.cls-2{fill:#fff;}</style></defs><g id="Capa_2" data-name="Capa 2"><g id="Layer_1" data-name="Layer 1"><path class="cls-1" d="M62.42,9a9.9,9.9,0,0,1,3.52.61,7.58,7.58,0,0,1,2.82,1.8,8.36,8.36,0,0,1,1.87,3,12.33,12.33,0,0,1,.67,4.24,13.76,13.76,0,0,1-.55,3.95,8.81,8.81,0,0,1-1.66,3.12,7.68,7.68,0,0,1-2.77,2.07,9.36,9.36,0,0,1-3.9.75H54V9Zm-.3,16a5.59,5.59,0,0,0,1.81-.3,4.21,4.21,0,0,0,1.56-1,5,5,0,0,0,1.09-1.83A7.85,7.85,0,0,0,67,19.1a11.56,11.56,0,0,0-.29-2.67,5.34,5.34,0,0,0-.95-2A4.25,4.25,0,0,0,64,13.09a7,7,0,0,0-2.67-.45H58.28V25Z"/><path class="cls-1" d="M83.73,9a6.14,6.14,0,0,1,2.37.43,5.36,5.36,0,0,1,1.81,1.16,5.16,5.16,0,0,1,1.15,1.71,5.42,5.42,0,0,1,.4,2.1,5.84,5.84,0,0,1-.73,3,4.53,4.53,0,0,1-2.37,1.91v.06a3.29,3.29,0,0,1,1.32.67,3.86,3.86,0,0,1,.85,1.07A4.92,4.92,0,0,1,89,22.47a12.8,12.8,0,0,1,.2,1.48c0,.31,0,.68.06,1.1s0,.85.09,1.29a9.41,9.41,0,0,0,.22,1.24,2.79,2.79,0,0,0,.45,1h-4.3a8,8,0,0,1-.44-2.22c-.05-.85-.13-1.68-.24-2.46a4,4,0,0,0-.93-2.25,3.23,3.23,0,0,0-2.33-.71h-4.3v7.64h-4.3V9ZM82.2,17.87a3.25,3.25,0,0,0,2.22-.66,2.72,2.72,0,0,0,.74-2.13A2.62,2.62,0,0,0,84.42,13a3.3,3.3,0,0,0-2.22-.64H77.49v5.5Z"/><path class="cls-1" d="M100.69,9a8.07,8.07,0,0,1,3.12.54,5.71,5.71,0,0,1,2.1,1.41,5.41,5.41,0,0,1,1.18,2,7.46,7.46,0,0,1,0,4.64,5.37,5.37,0,0,1-1.18,2,5.85,5.85,0,0,1-2.1,1.42,8.27,8.27,0,0,1-3.12.53H96.17v7h-4.3V9Zm-1.18,9.21a9.52,9.52,0,0,0,1.43-.11,3.5,3.5,0,0,0,1.2-.43,2.26,2.26,0,0,0,.84-.89,3.1,3.1,0,0,0,.31-1.5,3.14,3.14,0,0,0-.31-1.51,2.33,2.33,0,0,0-.84-.89,3.29,3.29,0,0,0-1.2-.42,8.37,8.37,0,0,0-1.43-.11H96.17v5.86Z"/><path class="cls-2" d="M115.1,9l4.57,13.45h.06L124.06,9h6.05V28.58h-4V14.72h0l-4.79,13.86h-3.32l-4.79-13.72h-.06V28.58h-4V9Z"/><path class="cls-2" d="M137.1,25.19a4,4,0,0,0,4.54.26,2.41,2.41,0,0,0,1-1.25h3.43a6.5,6.5,0,0,1-2.52,3.64,7.42,7.42,0,0,1-4.11,1.1,8,8,0,0,1-3-.54,6.13,6.13,0,0,1-2.28-1.52,6.83,6.83,0,0,1-1.44-2.35,8.82,8.82,0,0,1-.5-3,8.17,8.17,0,0,1,.52-3,6.71,6.71,0,0,1,1.48-2.37,7.06,7.06,0,0,1,2.28-1.58,7.43,7.43,0,0,1,2.95-.57,6.68,6.68,0,0,1,3.15.7,6.24,6.24,0,0,1,2.2,1.87,7.55,7.55,0,0,1,1.25,2.69,9.94,9.94,0,0,1,.28,3.15H136.14A3.89,3.89,0,0,0,137.1,25.19Zm4.39-7.46a2.72,2.72,0,0,0-2.12-.76,3.4,3.4,0,0,0-1.55.31,2.87,2.87,0,0,0-1,.78,2.78,2.78,0,0,0-.52,1,4.08,4.08,0,0,0-.18.93h6.33A4.56,4.56,0,0,0,141.49,17.73ZM140.16,7.08l-2.9,4.85H140l4.47-4.85Z"/><path class="cls-2" d="M147.07,14.42h4.43l2.5,3.7,2.46-3.7h4.3l-4.65,6.63,5.23,7.53H156.9l-3-4.46-3,4.46h-4.35l5.09-7.45Z"/><path class="cls-2" d="M162.38,12.23V9h3.89v3.21Zm3.89,2.19V28.58h-3.89V14.42Z"/><path class="cls-2" d="M175.56,17a2.76,2.76,0,0,0-1.57.42,3.36,3.36,0,0,0-1,1.1,4.63,4.63,0,0,0-.56,1.48,8,8,0,0,0-.17,1.6,7.68,7.68,0,0,0,.17,1.56,4.76,4.76,0,0,0,.53,1.44,3,3,0,0,0,1,1.05,2.69,2.69,0,0,0,1.53.41,2.83,2.83,0,0,0,2.15-.78,3.66,3.66,0,0,0,.95-2.09h3.75a6.38,6.38,0,0,1-2.19,4.3,7,7,0,0,1-4.63,1.48,7.7,7.7,0,0,1-2.92-.54,6.41,6.41,0,0,1-2.26-1.49,6.83,6.83,0,0,1-1.45-2.29,7.81,7.81,0,0,1-.52-2.91,9.44,9.44,0,0,1,.48-3.06,7,7,0,0,1,1.41-2.44,6.57,6.57,0,0,1,2.28-1.6,7.73,7.73,0,0,1,3.06-.57,8.91,8.91,0,0,1,2.43.33,6.45,6.45,0,0,1,2.08,1A5.34,5.34,0,0,1,181.58,17a5.14,5.14,0,0,1,.66,2.37h-3.81A2.6,2.6,0,0,0,175.56,17Z"/><path class="cls-2" d="M184.05,18.43a6.54,6.54,0,0,1,1.48-2.35,6.62,6.62,0,0,1,2.3-1.51,8,8,0,0,1,3-.53,8.13,8.13,0,0,1,3,.53,6.66,6.66,0,0,1,2.31,1.51,6.54,6.54,0,0,1,1.48,2.35,8.66,8.66,0,0,1,.52,3.08,8.49,8.49,0,0,1-.52,3.07,6.54,6.54,0,0,1-1.48,2.35,6.62,6.62,0,0,1-2.31,1.49,8.56,8.56,0,0,1-3,.52,8.41,8.41,0,0,1-3-.52,6.41,6.41,0,0,1-3.78-3.84,8.49,8.49,0,0,1-.52-3.07A8.66,8.66,0,0,1,184.05,18.43Zm3.53,4.74a4.43,4.43,0,0,0,.56,1.45,3,3,0,0,0,1.06,1,3.16,3.16,0,0,0,1.64.38,3.26,3.26,0,0,0,1.66-.38,2.94,2.94,0,0,0,1.07-1,4.43,4.43,0,0,0,.56-1.45,8.27,8.27,0,0,0,.16-1.66,8.51,8.51,0,0,0-.16-1.67,4.43,4.43,0,0,0-.56-1.45,3.2,3.2,0,0,0-1.07-1,3.26,3.26,0,0,0-1.66-.39,3.16,3.16,0,0,0-1.64.39,3.26,3.26,0,0,0-1.06,1,4.43,4.43,0,0,0-.56,1.45,8.51,8.51,0,0,0-.16,1.67A8.27,8.27,0,0,0,187.58,23.17Z"/><path class="cls-2" d="M57.48,31.69a2.2,2.2,0,0,1,1.6.54,2.09,2.09,0,0,1,.54,1.53,2.06,2.06,0,0,1-.54,1.52,2.12,2.12,0,0,1-1.6.54H55.34v2.86h-.93v-7ZM57.16,35a1.64,1.64,0,0,0,1.16-.33,1.42,1.42,0,0,0,0-1.91,1.69,1.69,0,0,0-1.16-.33H55.34V35Z"/><path class="cls-2" d="M64.54,33.62v1.07h0a2.26,2.26,0,0,1,.74-.92,2,2,0,0,1,1.12-.27v.88a2.36,2.36,0,0,0-.85.14,1.26,1.26,0,0,0-.57.4,1.66,1.66,0,0,0-.31.64,3.25,3.25,0,0,0-.1.87v2.25h-.83V33.62Z"/><path class="cls-2" d="M69.92,35.11a2.47,2.47,0,0,1,.47-.84,2.16,2.16,0,0,1,.77-.56,2.54,2.54,0,0,1,1.06-.21,2.47,2.47,0,0,1,1.06.21,2.07,2.07,0,0,1,.77.56,2.31,2.31,0,0,1,.47.84,3.46,3.46,0,0,1,0,2.08,2.31,2.31,0,0,1-.47.84,2.17,2.17,0,0,1-.77.55,2.48,2.48,0,0,1-1.06.2,2.54,2.54,0,0,1-1.06-.2,2.26,2.26,0,0,1-.77-.55,2.47,2.47,0,0,1-.47-.84,3.68,3.68,0,0,1,0-2.08ZM70.77,37a1.6,1.6,0,0,0,.34.6,1.36,1.36,0,0,0,.5.36,1.42,1.42,0,0,0,.61.13,1.39,1.39,0,0,0,.61-.13,1.49,1.49,0,0,0,.51-.36,1.73,1.73,0,0,0,.33-.6,2.31,2.31,0,0,0,.13-.82,2.26,2.26,0,0,0-.13-.81,1.88,1.88,0,0,0-.33-.61,1.67,1.67,0,0,0-.51-.37,1.55,1.55,0,0,0-.61-.13,1.59,1.59,0,0,0-.61.13,1.52,1.52,0,0,0-.5.37,1.72,1.72,0,0,0-.34.61,2.51,2.51,0,0,0-.12.81A2.57,2.57,0,0,0,70.77,37Z"/><path class="cls-2" d="M81,33.62v.73H80v3.14a1.44,1.44,0,0,0,0,.24.22.22,0,0,0,.1.13.33.33,0,0,0,.19.07H81v.74h-.64a2.87,2.87,0,0,1-.55,0,.79.79,0,0,1-.37-.16.63.63,0,0,1-.21-.33,1.76,1.76,0,0,1-.07-.57V34.35h-.86v-.73h.86V32.1H80v1.52Z"/><path class="cls-2" d="M88.66,38.35a2.29,2.29,0,0,1-1.43.43,2.56,2.56,0,0,1-1-.19,2,2,0,0,1-.75-.55A2.28,2.28,0,0,1,85,37.2a4.44,4.44,0,0,1-.17-1.07A3,3,0,0,1,85,35.08a2.69,2.69,0,0,1,.49-.84,2.34,2.34,0,0,1,1.71-.74,2,2,0,0,1,1.12.28,2.1,2.1,0,0,1,.71.71,2.86,2.86,0,0,1,.38.94,4.7,4.7,0,0,1,.08,1H85.68a2.18,2.18,0,0,0,.08.63,1.4,1.4,0,0,0,.78.89,1.62,1.62,0,0,0,.72.14,1.43,1.43,0,0,0,.86-.24,1.2,1.2,0,0,0,.45-.75h.82A2,2,0,0,1,88.66,38.35Zm-.2-3.24a1.49,1.49,0,0,0-.31-.46,1.19,1.19,0,0,0-.45-.3,1.32,1.32,0,0,0-.57-.12,1.37,1.37,0,0,0-.58.12,1.39,1.39,0,0,0-.45.31,1.51,1.51,0,0,0-.29.45,2,2,0,0,0-.13.55h2.91A1.7,1.7,0,0,0,88.46,35.11Z"/><path class="cls-2" d="M96.52,34.5a1.25,1.25,0,0,0-.84-.27,1.54,1.54,0,0,0-.75.17,1.48,1.48,0,0,0-.49.44,2,2,0,0,0-.26.63,3.64,3.64,0,0,0-.07.74,2.66,2.66,0,0,0,.08.69,1.86,1.86,0,0,0,.26.59,1.34,1.34,0,0,0,1.13.57,1.38,1.38,0,0,0,1-.32,1.47,1.47,0,0,0,.42-.91h.85a2.32,2.32,0,0,1-.7,1.45,2.17,2.17,0,0,1-1.53.5,2.73,2.73,0,0,1-1-.18,2,2,0,0,1-.74-.53,2.25,2.25,0,0,1-.45-.82,3.39,3.39,0,0,1-.15-1,4,4,0,0,1,.14-1.06,2.43,2.43,0,0,1,.45-.86,2,2,0,0,1,.75-.58,2.44,2.44,0,0,1,1-.21,3.45,3.45,0,0,1,.81.1,2.18,2.18,0,0,1,.67.32,1.87,1.87,0,0,1,.47.54,2.23,2.23,0,0,1,.24.78h-.87A1.23,1.23,0,0,0,96.52,34.5Z"/><path class="cls-2" d="M104.09,33.62v.73h-1v3.14a1.44,1.44,0,0,0,0,.24.22.22,0,0,0,.1.13.3.3,0,0,0,.19.07h.7v.74h-.64a2.79,2.79,0,0,1-.55,0,.74.74,0,0,1-.37-.16.71.71,0,0,1-.22-.33,2.16,2.16,0,0,1-.06-.57V34.35h-.87v-.73h.87V32.1h.83v1.52Z"/><path class="cls-2" d="M108.22,32.71v-1h.84v1Zm.84.91v5.06h-.84V33.62Z"/><path class="cls-2" d="M114.3,33.62v.8h0A1.75,1.75,0,0,1,116,33.5a2.17,2.17,0,0,1,.83.14,1.28,1.28,0,0,1,.54.38,1.33,1.33,0,0,1,.29.58,3,3,0,0,1,.08.75v3.33h-.83V35.25a1,1,0,0,0-.27-.74,1,1,0,0,0-.75-.28,1.62,1.62,0,0,0-.66.12,1.17,1.17,0,0,0-.47.34,1.44,1.44,0,0,0-.28.5,2.08,2.08,0,0,0-.09.63v2.86h-.83V33.62Z"/><path class="cls-2" d="M125.92,40.11a2.31,2.31,0,0,1-1.78.61,3.05,3.05,0,0,1-.72-.08,2.1,2.1,0,0,1-.66-.25,1.57,1.57,0,0,1-.5-.46,1.29,1.29,0,0,1-.21-.7h.83a.66.66,0,0,0,.14.39,1.31,1.31,0,0,0,.32.25,1.48,1.48,0,0,0,.42.14,2.18,2.18,0,0,0,.43.05,1.51,1.51,0,0,0,.7-.15,1.23,1.23,0,0,0,.46-.39,1.38,1.38,0,0,0,.27-.6,3.07,3.07,0,0,0,.09-.77v-.33h0a1.45,1.45,0,0,1-.65.69,2.12,2.12,0,0,1-.93.22,2.19,2.19,0,0,1-1-.21,2.11,2.11,0,0,1-.7-.55,2.42,2.42,0,0,1-.43-.81,3.53,3.53,0,0,1-.14-1,3.69,3.69,0,0,1,.12-.92,2.5,2.5,0,0,1,.39-.86,2.13,2.13,0,0,1,.72-.64,2.22,2.22,0,0,1,1.11-.25,1.87,1.87,0,0,1,.88.21,1.47,1.47,0,0,1,.63.63h0v-.72h.78v4.63A2.69,2.69,0,0,1,125.92,40.11Zm-1.06-2.28a1.35,1.35,0,0,0,.47-.45,2.18,2.18,0,0,0,.25-.63,2.88,2.88,0,0,0,.09-.71,2.82,2.82,0,0,0-.08-.65,1.79,1.79,0,0,0-.25-.58,1.21,1.21,0,0,0-.45-.42,1.34,1.34,0,0,0-.66-.16,1.46,1.46,0,0,0-.69.16,1.36,1.36,0,0,0-.46.4,1.66,1.66,0,0,0-.26.59,2.61,2.61,0,0,0-.09.69,4,4,0,0,0,.07.69,1.86,1.86,0,0,0,.24.62,1.19,1.19,0,0,0,.44.45,1.29,1.29,0,0,0,.68.17A1.39,1.39,0,0,0,124.86,37.83Z"/><path class="cls-2" d="M139.47,31.69H140a4.36,4.36,0,0,1,.51,0,3.11,3.11,0,0,1,.47.07,1,1,0,0,1,.38.15,1.72,1.72,0,0,1,.58.56,1.58,1.58,0,0,1,.24.89,1.72,1.72,0,0,1-.27,1,1.58,1.58,0,0,1-.76.6v0a1.56,1.56,0,0,1,1,.59,1.74,1.74,0,0,1,.35,1.09,2.07,2.07,0,0,1-.14.74,1.84,1.84,0,0,1-.41.65,2.26,2.26,0,0,1-.66.45,2.4,2.4,0,0,1-.92.17h-3.37v-7Zm.26,3a1.89,1.89,0,0,0,1.14-.27,1,1,0,0,0,.34-.84,1.38,1.38,0,0,0-.11-.59.87.87,0,0,0-.33-.33,1.13,1.13,0,0,0-.47-.15,5.1,5.1,0,0,0-.57,0h-1.86v2.22Zm.47,3.2a1.33,1.33,0,0,0,1-.33,1.22,1.22,0,0,0,.35-.92,1.2,1.2,0,0,0-.13-.57,1,1,0,0,0-.34-.35,1.46,1.46,0,0,0-.48-.19,3.45,3.45,0,0,0-.57-.05h-2.12v2.41Z"/><path class="cls-2" d="M150.08,38.68v-.81h0a1.62,1.62,0,0,1-.68.69,2,2,0,0,1-1,.22,2.23,2.23,0,0,1-.83-.13,1.41,1.41,0,0,1-.54-.37,1.47,1.47,0,0,1-.28-.59,2.86,2.86,0,0,1-.09-.75V33.62h.83V37a1,1,0,0,0,.28.75,1,1,0,0,0,.75.27,1.62,1.62,0,0,0,.66-.12,1.33,1.33,0,0,0,.47-.33,1.62,1.62,0,0,0,.28-.5,2.18,2.18,0,0,0,.09-.63V33.62h.83v5.06Z"/><path class="cls-2" d="M155.92,37.55a1,1,0,0,0,.31.3,1.16,1.16,0,0,0,.43.16,2.63,2.63,0,0,0,.49.05l.41,0a1.24,1.24,0,0,0,.4-.11.76.76,0,0,0,.3-.23.66.66,0,0,0,.11-.38.55.55,0,0,0-.24-.49,2.16,2.16,0,0,0-.61-.27c-.25-.07-.51-.13-.8-.19a3.92,3.92,0,0,1-.8-.23,1.65,1.65,0,0,1-.61-.43,1.1,1.1,0,0,1-.24-.76,1.2,1.2,0,0,1,.17-.66,1.32,1.32,0,0,1,.44-.44,2,2,0,0,1,.61-.26,3,3,0,0,1,.67-.08,4.84,4.84,0,0,1,.79.07,1.92,1.92,0,0,1,.64.26,1.23,1.23,0,0,1,.44.49,1.71,1.71,0,0,1,.2.77h-.83a.83.83,0,0,0-.13-.41.84.84,0,0,0-.27-.26,1.49,1.49,0,0,0-.37-.14,1.84,1.84,0,0,0-.41-.05,2.31,2.31,0,0,0-.37,0,1.2,1.2,0,0,0-.35.11.69.69,0,0,0-.25.19.47.47,0,0,0-.1.32.49.49,0,0,0,.15.36,1.22,1.22,0,0,0,.39.23,3.19,3.19,0,0,0,.52.16l.59.13a6.09,6.09,0,0,1,.61.17,1.75,1.75,0,0,1,.53.26,1.14,1.14,0,0,1,.51,1,1.36,1.36,0,0,1-.19.76,1.38,1.38,0,0,1-.5.49,1.9,1.9,0,0,1-.69.26,4,4,0,0,1-.77.07,3.45,3.45,0,0,1-.8-.08,2,2,0,0,1-.67-.29,1.41,1.41,0,0,1-.47-.53,1.75,1.75,0,0,1-.2-.8h.83A1,1,0,0,0,155.92,37.55Z"/><path class="cls-2" d="M163.39,32.71v-1h.83v1Zm.83.91v5.06h-.83V33.62Z"/><path class="cls-2" d="M169.47,33.62v.8h0a1.75,1.75,0,0,1,1.64-.92,2.21,2.21,0,0,1,.83.14,1.35,1.35,0,0,1,.54.38,1.44,1.44,0,0,1,.29.58,3,3,0,0,1,.08.75v3.33H172V35.25a1,1,0,0,0-.27-.74,1,1,0,0,0-.76-.28,1.69,1.69,0,0,0-.66.12,1.2,1.2,0,0,0-.46.34,1.44,1.44,0,0,0-.28.5,2.08,2.08,0,0,0-.09.63v2.86h-.83V33.62Z"/><path class="cls-2" d="M180.88,38.35a2.29,2.29,0,0,1-1.43.43,2.56,2.56,0,0,1-1-.19,2,2,0,0,1-.75-.55,2.28,2.28,0,0,1-.46-.84,4,4,0,0,1-.17-1.07,3,3,0,0,1,.18-1.05,2.69,2.69,0,0,1,.49-.84,2.19,2.19,0,0,1,.76-.54,2.28,2.28,0,0,1,1-.2,2,2,0,0,1,1.12.28,2.19,2.19,0,0,1,.71.71,2.86,2.86,0,0,1,.38.94,4.7,4.7,0,0,1,.08,1H177.9A2.18,2.18,0,0,0,178,37a1.5,1.5,0,0,0,.28.53,1.43,1.43,0,0,0,.5.36,1.62,1.62,0,0,0,.72.14,1.43,1.43,0,0,0,.86-.24,1.2,1.2,0,0,0,.45-.75h.82A2,2,0,0,1,180.88,38.35Zm-.2-3.24a1.49,1.49,0,0,0-.31-.46,1.19,1.19,0,0,0-.45-.3,1.32,1.32,0,0,0-.57-.12,1.37,1.37,0,0,0-.58.12,1.39,1.39,0,0,0-.45.31,1.51,1.51,0,0,0-.29.45,2,2,0,0,0-.13.55h2.91A1.7,1.7,0,0,0,180.68,35.11Z"/><path class="cls-2" d="M186.36,37.55a1,1,0,0,0,.3.3,1.23,1.23,0,0,0,.43.16,2.73,2.73,0,0,0,.5.05l.41,0a1.4,1.4,0,0,0,.4-.11.66.66,0,0,0,.29-.23.6.6,0,0,0,.12-.38.55.55,0,0,0-.24-.49,2.29,2.29,0,0,0-.61-.27c-.25-.07-.52-.13-.8-.19a3.74,3.74,0,0,1-.8-.23,1.57,1.57,0,0,1-.61-.43,1.1,1.1,0,0,1-.25-.76,1.21,1.21,0,0,1,.18-.66,1.32,1.32,0,0,1,.44-.44,2,2,0,0,1,.6-.26,3.14,3.14,0,0,1,.67-.08,4.74,4.74,0,0,1,.79.07,1.89,1.89,0,0,1,.65.26,1.31,1.31,0,0,1,.44.49,1.85,1.85,0,0,1,.2.77h-.84a.83.83,0,0,0-.12-.41.87.87,0,0,0-.28-.26,1.42,1.42,0,0,0-.36-.14,1.92,1.92,0,0,0-.41-.05l-.38,0a1.23,1.23,0,0,0-.34.11.73.73,0,0,0-.26.19.53.53,0,0,0-.1.32.5.5,0,0,0,.16.36,1.28,1.28,0,0,0,.38.23,3.67,3.67,0,0,0,.53.16l.59.13a6.09,6.09,0,0,1,.61.17,1.87,1.87,0,0,1,.53.26,1.18,1.18,0,0,1,.37.4,1.28,1.28,0,0,1,.14.61,1.36,1.36,0,0,1-.19.76,1.47,1.47,0,0,1-.5.49,2,2,0,0,1-.69.26,4.08,4.08,0,0,1-.77.07,3.45,3.45,0,0,1-.8-.08,2.09,2.09,0,0,1-.68-.29,1.61,1.61,0,0,1-.47-.53,1.75,1.75,0,0,1-.19-.8h.83A.89.89,0,0,0,186.36,37.55Z"/><path class="cls-2" d="M194.42,37.55a1,1,0,0,0,.3.3,1.29,1.29,0,0,0,.44.16,2.54,2.54,0,0,0,.49.05l.41,0a1.32,1.32,0,0,0,.4-.11.66.66,0,0,0,.29-.23.6.6,0,0,0,.12-.38.55.55,0,0,0-.24-.49,2.29,2.29,0,0,0-.61-.27c-.25-.07-.51-.13-.8-.19a3.92,3.92,0,0,1-.8-.23,1.57,1.57,0,0,1-.61-.43,1.1,1.1,0,0,1-.24-.76,1.2,1.2,0,0,1,.17-.66,1.32,1.32,0,0,1,.44-.44,2,2,0,0,1,.6-.26,3.14,3.14,0,0,1,.67-.08,5,5,0,0,1,.8.07,1.92,1.92,0,0,1,.64.26,1.31,1.31,0,0,1,.44.49,1.85,1.85,0,0,1,.2.77h-.83a.94.94,0,0,0-.13-.41.84.84,0,0,0-.27-.26,1.66,1.66,0,0,0-.37-.14,1.92,1.92,0,0,0-.41-.05,2.31,2.31,0,0,0-.37,0,1.2,1.2,0,0,0-.35.11.73.73,0,0,0-.26.19.53.53,0,0,0-.09.32.49.49,0,0,0,.15.36,1.28,1.28,0,0,0,.38.23,3.67,3.67,0,0,0,.53.16l.59.13a6.09,6.09,0,0,1,.61.17,1.75,1.75,0,0,1,.53.26,1.14,1.14,0,0,1,.51,1,1.36,1.36,0,0,1-.19.76,1.47,1.47,0,0,1-.5.49,1.9,1.9,0,0,1-.69.26,4.08,4.08,0,0,1-.77.07,3.45,3.45,0,0,1-.8-.08,2.09,2.09,0,0,1-.68-.29,1.61,1.61,0,0,1-.47-.53,1.89,1.89,0,0,1-.19-.8h.83A1,1,0,0,0,194.42,37.55Z"/><path class="cls-2" d="M3.87,21.27H0A22.08,22.08,0,0,1,21.24,0V3.86A18.23,18.23,0,0,0,3.87,21.27Z"/><path class="cls-2" d="M21.24,40.23v3.86A22.07,22.07,0,0,1,0,22.93H3.88A18.21,18.21,0,0,0,21.24,40.23Z"/><path class="cls-2" d="M40.22,22.93h3.87a22.07,22.07,0,0,1-21.2,21.16V40.22A18.22,18.22,0,0,0,40.22,22.93Z"/><path class="cls-1" d="M23.13,6.34V10A12.28,12.28,0,0,1,34.62,21.53H38.3A16,16,0,0,0,23.13,6.34Z"/><path class="cls-1" d="M21.56,10V6.34A16,16,0,0,0,6.42,21.53h3.67A12.3,12.3,0,0,1,21.56,10Z"/><path class="cls-1" d="M10.1,23.11H6.43A16,16,0,0,0,21.56,38.2V34.53A12.3,12.3,0,0,1,10.1,23.11Z"/><path class="cls-2" d="M17.16,19.5h10.4a.79.79,0,0,0,0-1.58H17.16a.79.79,0,0,0,0,1.58Zm10.15-1.1a.31.31,0,1,1-.31.31A.31.31,0,0,1,27.31,18.4Z"/><path class="cls-2" d="M27.56,21.48H17.16a.79.79,0,0,0,0,1.58h10.4a.79.79,0,0,0,0-1.58Zm-.25,1.1a.31.31,0,1,1,.32-.31A.31.31,0,0,1,27.31,22.58Z"/><path class="cls-2" d="M27.56,25H17.16a.79.79,0,0,0,0,1.58h10.4a.79.79,0,0,0,0-1.58Zm-.25,1.19a.32.32,0,1,1,.32-.32A.31.31,0,0,1,27.31,26.23Z"/><path class="cls-2" d="M203.38,11.64a2.81,2.81,0,0,0-2-.82,2.59,2.59,0,0,0-1.81.83,2.78,2.78,0,0,0-.73,2.22,2.84,2.84,0,0,0,.82,1.57,2.65,2.65,0,0,0,1.85.74,2.68,2.68,0,0,0,2.68-2.66A2.64,2.64,0,0,0,203.38,11.64Zm0,2.82a2.11,2.11,0,0,1-1.82,1.17h-.17a2.15,2.15,0,0,1-1.71-1,1.89,1.89,0,0,1-.32-.81,2.1,2.1,0,0,1,.7-1.95,2,2,0,0,1,.7-.42,2.15,2.15,0,0,1,.7-.12h.31l.13,0,.12,0,.17.05a2.64,2.64,0,0,1,.29.14,1.39,1.39,0,0,1,.27.17A1.21,1.21,0,0,1,203,12a1.57,1.57,0,0,1,.21.24,2,2,0,0,1,.38.9A2.07,2.07,0,0,1,203.38,14.46Z"/><path class="cls-2" d="M202.43,14.51l-.11-.21-.1-.18a2,2,0,0,0-.31-.48.63.63,0,0,0,.37-.36.91.91,0,0,0,0-.61.56.56,0,0,0-.36-.37,1.06,1.06,0,0,0-.31-.05h-.8c-.14,0-.18,0-.18.18v2.18a.13.13,0,0,0,0,.1.2.2,0,0,0,.1,0h.13c.14,0,.18,0,.18-.17v-.85h.21a.28.28,0,0,1,.22.11l.08.12c.09.15.17.3.25.45a2,2,0,0,0,.13.25.16.16,0,0,0,.15.09h.22a.14.14,0,0,0,.12-.05.16.16,0,0,0,0-.14Zm-1.35-1.8h.55a.26.26,0,0,1,.19.08.26.26,0,0,1,.05.2c0,.19-.09.26-.29.27h-.5Z"/></g></g></svg>