<svg xmlns="http://www.w3.org/2000/svg" xmlns:xlink="http://www.w3.org/1999/xlink" viewBox="0 0 81.81 81.81"><defs><style>.cls-1{fill:url(#radial-gradient);}.cls-2{fill:url(#linear-gradient);}.cls-3{fill:none;stroke:#8d8080;stroke-miterlimit:10;}</style><radialGradient id="radial-gradient" cx="34.26" cy="17.48" r="94.46" gradientUnits="userSpaceOnUse"><stop offset="0" stop-color="#fff"/><stop offset="1" stop-color="#b1a8a8"/></radialGradient><linearGradient id="linear-gradient" x1="2.8" y1="40.91" x2="79.02" y2="40.91" gradientTransform="translate(71.14 -8.42) rotate(76.51)" gradientUnits="userSpaceOnUse"><stop offset="0" stop-color="#b1a8a8"/><stop offset="1" stop-color="#fff"/></linearGradient></defs><g id="Capa_2" data-name="Capa 2"><g id="Layer_1" data-name="Layer 1"><circle class="cls-1" cx="40.91" cy="40.91" r="40.91"/><circle class="cls-2" cx="40.91" cy="40.91" r="38.11" transform="translate(-8.42 71.14) rotate(-76.51)"/><ellipse class="cls-3" cx="37.98" cy="30.36" rx="11.15" ry="3.57"/><path class="cls-3" d="M40.65,39.88c-.86.06-1.75.1-2.67.1-6.16,0-11.15-1.6-11.15-3.57"/><path class="cls-3" d="M36.14,46c-5.28-.28-9.31-1.75-9.31-3.52"/><path class="cls-3" d="M26.83,30.36V48.51c0,1.66,3.55,3.06,8.37,3.46"/><line class="cls-3" x1="49.13" y1="30.36" x2="49.13" y2="37.69"/><path class="cls-3" d="M38.68,54.26a3.68,3.68,0,0,1-1.54-.63,5.27,5.27,0,0,1-2-2.51,4.29,4.29,0,0,1-.23-.8,4.79,4.79,0,0,1,3.64-5.4l.16,0v0a7.38,7.38,0,0,1,6.33-7,7,7,0,0,1,4.21.46A7.72,7.72,0,0,1,51.69,40a7.62,7.62,0,0,1,1.82,3.32,1.16,1.16,0,0,1,0,.18c0,.09.05.18.07.24h.09a4.18,4.18,0,0,1,2.07,0,5.57,5.57,0,0,1,2.27,1.16,5.23,5.23,0,0,1,1.81,3.78,2.47,2.47,0,0,1,0,.39,2.54,2.54,0,0,1,1.4.79c.11.13.22.27.32.41A2.53,2.53,0,0,1,62,51.49h0a2.71,2.71,0,0,1-1.26,2.42,2.14,2.14,0,0,1-.92.34,3.06,3.06,0,0,1-.56,0h-1Z"/></g></g></svg>