<svg xmlns="http://www.w3.org/2000/svg" xmlns:xlink="http://www.w3.org/1999/xlink" viewBox="0 0 81.81 81.81"><defs><style>.cls-1{fill:url(#radial-gradient);}.cls-2{fill:url(#linear-gradient);}.cls-3{fill:none;stroke:#8d8080;stroke-miterlimit:10;}.cls-4{font-size:6.78px;fill:#8d8080;font-family:Poppins-SemiBold, Poppins SemiBold;font-weight:600;}.cls-5{letter-spacing:0.01em;}.cls-6{letter-spacing:0em;}.cls-7{letter-spacing:-0.01em;}.cls-8{letter-spacing:0em;}.cls-9{letter-spacing:0em;}</style><radialGradient id="radial-gradient" cx="34.26" cy="17.48" r="94.46" gradientUnits="userSpaceOnUse"><stop offset="0" stop-color="#fff"/><stop offset="1" stop-color="#b1a8a8"/></radialGradient><linearGradient id="linear-gradient" x1="2.8" y1="40.91" x2="79.02" y2="40.91" gradientTransform="translate(40.91 -16.94) rotate(45)" gradientUnits="userSpaceOnUse"><stop offset="0" stop-color="#b1a8a8"/><stop offset="1" stop-color="#fff"/></linearGradient></defs><g id="Capa_2" data-name="Capa 2"><g id="Layer_1" data-name="Layer 1"><circle class="cls-1" cx="40.91" cy="40.91" r="40.91"/><circle class="cls-2" cx="40.91" cy="40.91" r="38.11" transform="translate(-16.94 40.91) rotate(-45)"/><path class="cls-3" d="M26.17,51.18a6,6,0,0,1-2.55-1A8.68,8.68,0,0,1,20.27,46a6.23,6.23,0,0,1-.39-1.33,8,8,0,0,1,6-8.94l.26-.05a.2.2,0,0,1,0-.07c.4-6.08,4.31-10.43,10.47-11.62a11.46,11.46,0,0,1,7,.77A12,12,0,0,1,50.73,33c0,.09.05.19.07.29s.07.29.11.41l.15,0a6.71,6.71,0,0,1,3.43.09,9,9,0,0,1,3.75,1.92,8.67,8.67,0,0,1,3,6.25,4.72,4.72,0,0,1,0,.66,4.14,4.14,0,0,1,2.32,1.3,5,5,0,0,1,.53.68,4.07,4.07,0,0,1,.69,2h0a4.5,4.5,0,0,1-2.08,4,3.84,3.84,0,0,1-1.53.57,5.21,5.21,0,0,1-.92.07h-.78c-.47,0-.29,0-.84,0Z"/><text class="cls-4" transform="translate(30.3 45.3)"><tspan class="cls-5">I</tspan><tspan class="cls-6" x="1.69" y="0">n</tspan><tspan class="cls-7" x="5.42" y="0">t</tspan><tspan x="7.62" y="0">e</tspan><tspan class="cls-8" x="11.02" y="0">r</tspan><tspan class="cls-9" x="13.26" y="0">net</tspan></text></g></g></svg>