<svg xmlns="http://www.w3.org/2000/svg" xmlns:xlink="http://www.w3.org/1999/xlink" viewBox="0 0 81.81 81.81"><defs><style>.cls-1{fill:url(#radial-gradient);}.cls-2{fill:url(#linear-gradient);}.cls-3{fill:none;stroke:#8d8080;stroke-miterlimit:10;}</style><radialGradient id="radial-gradient" cx="34.26" cy="17.48" r="94.46" gradientUnits="userSpaceOnUse"><stop offset="0" stop-color="#fff"/><stop offset="1" stop-color="#b1a8a8"/></radialGradient><linearGradient id="linear-gradient" x1="2.8" y1="40.91" x2="79.02" y2="40.91" gradientTransform="translate(40.91 -16.94) rotate(45)" gradientUnits="userSpaceOnUse"><stop offset="0" stop-color="#b1a8a8"/><stop offset="1" stop-color="#fff"/></linearGradient></defs><g id="Capa_2" data-name="Capa 2"><g id="Layer_1" data-name="Layer 1"><circle class="cls-1" cx="40.91" cy="40.91" r="40.91"/><circle class="cls-2" cx="40.91" cy="40.91" r="38.11" transform="translate(-16.94 40.91) rotate(-45)"/><path class="cls-3" d="M57.78,48.28c.53,0,.36,0,.82,0h.75a6,6,0,0,0,.9-.07,3.61,3.61,0,0,0,1.48-.56,4.35,4.35,0,0,0,2-3.88h0a4,4,0,0,0-.67-2,5.41,5.41,0,0,0-.51-.65,4,4,0,0,0-2.26-1.27,6.4,6.4,0,0,0,0-.64,8.4,8.4,0,0,0-2.93-6.07,8.67,8.67,0,0,0-3.64-1.87,6.55,6.55,0,0,0-3.33-.09l-.15,0c0-.11-.07-.25-.11-.39s0-.2-.07-.29a11.61,11.61,0,0,0-6.89-8,11.2,11.2,0,0,0-6.78-.75c-6,1.16-9.79,5.38-10.18,11.29,0,0,0,0,0,.07l-.25.06a7.71,7.71,0,0,0-5.87,8.68,6.12,6.12,0,0,0,.38,1.3,8.48,8.48,0,0,0,3.25,4,5.92,5.92,0,0,0,2.48,1"/><rect class="cls-3" x="29.31" y="36.72" width="25.32" height="5.81"/><circle class="cls-3" cx="33.24" cy="39.61" r="0.72"/><circle class="cls-3" cx="37.31" cy="39.61" r="0.72"/><line class="cls-3" x1="40.93" y1="39.61" x2="51.4" y2="39.61"/><rect class="cls-3" x="29.31" y="45.01" width="25.32" height="5.81"/><circle class="cls-3" cx="33.24" cy="47.9" r="0.72"/><circle class="cls-3" cx="37.31" cy="47.9" r="0.72"/><line class="cls-3" x1="40.93" y1="47.9" x2="51.4" y2="47.9"/><rect class="cls-3" x="29.31" y="53.3" width="25.32" height="5.81"/><circle class="cls-3" cx="33.24" cy="56.19" r="0.72"/><circle class="cls-3" cx="37.31" cy="56.19" r="0.72"/><line class="cls-3" x1="40.93" y1="56.19" x2="51.4" y2="56.19"/></g></g></svg>