<svg xmlns="http://www.w3.org/2000/svg" viewBox="0 0 172.19 166.89"><defs><style>.cls-1{fill:#b1b2b8;stroke:#b1b2b8;}.cls-1,.cls-2{stroke-miterlimit:10;stroke-width:2.46px;}.cls-2{fill:#009845;stroke:#009845;}</style></defs><g id="Capa_2" data-name="Capa 2"><g id="Layer_1" data-name="Layer 1"><path class="cls-1" d="M84.42,31.27c0-1.79,0-3.58,0-5.37,0-.91-.23-1.24-1.18-1.18A61.85,61.85,0,0,0,42.14,43.26c-.75.76-.66,1.1.06,1.75,2.54,2.29,5,4.64,7.52,7a1.76,1.76,0,0,1,.62,2,1.65,1.65,0,0,1-1.46,1.18,2.22,2.22,0,0,1-1.75-.81L40,47.65c-1-.93-1-.95-1.84.11A61,61,0,0,0,25.62,75.28,59.77,59.77,0,0,0,24.78,90c0,.71.27.87,1,.81,3.07-.28,6.14-.49,9.22-.71a1.81,1.81,0,0,1,1.92,1.61,1.72,1.72,0,0,1-1.69,1.85c-1.91.17-3.83.29-5.75.43-1.09.07-2.18.18-3.28.19-.69,0-.93.2-.82.94A60.42,60.42,0,0,0,36,121.68c.25.35.51.69.74,1.06a1.67,1.67,0,0,1-.36,2.45,1.71,1.71,0,0,1-2.44-.49,57.3,57.3,0,0,1-3.8-5.72,63.18,63.18,0,0,1-8.43-25.09A63.52,63.52,0,0,1,33,48.9,64.58,64.58,0,0,1,52.59,30.61,64.72,64.72,0,0,1,134.52,43a63.84,63.84,0,0,1,15.39,31.42A60.57,60.57,0,0,1,151,87.57a65.36,65.36,0,0,1-12.24,36.52,7.52,7.52,0,0,1-.5.62,1.76,1.76,0,0,1-2.45.48,1.72,1.72,0,0,1-.28-2.55,63.89,63.89,0,0,0,5.1-8.18,60.57,60.57,0,0,0,6.21-19.22c.13-.88-.14-1-.9-1-2.95-.16-5.89-.38-8.83-.6a1.75,1.75,0,0,1-1.79-1.86,1.77,1.77,0,0,1,2-1.61c3,.2,6,.41,9,.67.73.07,1,0,1-.83a59.58,59.58,0,0,0-2-19.8,61.73,61.73,0,0,0-11.1-22.08c-1.12-1.44-1.1-1.44-2.42-.2-2.25,2.12-4.51,4.21-6.76,6.32l-.38.33a1.73,1.73,0,0,1-2.56.05,1.84,1.84,0,0,1,.26-2.67c1.36-1.27,2.74-2.51,4.11-3.76s2.41-2.28,3.66-3.38c.52-.46.53-.76,0-1.27A61.88,61.88,0,0,0,103.07,27.1a69.14,69.14,0,0,0-14-2.37c-.9-.07-1.25.2-1.23,1.14,0,3.45,0,6.9,0,10.35a6.71,6.71,0,0,1,0,1.1A1.76,1.76,0,0,1,86,38.85a1.61,1.61,0,0,1-1.59-1.7c0-2,0-3.92,0-5.88Z"/><path class="cls-1" d="M66,86.89c0,6.9,2,11.62,5.91,15.58,1,1,1.13,2,.43,2.71a1.75,1.75,0,0,1-2.65-.06,23.57,23.57,0,0,1-1.9-31.73A22.77,22.77,0,0,1,83.29,64.8a23.25,23.25,0,0,1,16.8,4.42,12.8,12.8,0,0,1,1.83,1.53,1,1,0,0,0,1.58,0c1.78-1.6,3.58-3.17,5.38-4.74q3.89-3.41,7.8-6.79a1.8,1.8,0,0,1,2.66,0,1.74,1.74,0,0,1-.41,2.62q-5.64,4.95-11.31,9.88c-.83.72-2,1.32-2.35,2.23s.89,1.77,1.39,2.67a23.57,23.57,0,0,1-3.81,28.2,4.65,4.65,0,0,1-.66.6,1.71,1.71,0,0,1-2.21-.14,1.8,1.8,0,0,1-.13-2.29c.35-.44.77-.82,1.16-1.23a20.17,20.17,0,0,0,1.88-24.68c-.44-.65-.69-.67-1.26-.16-2,1.78-4,3.52-6,5.24a1.12,1.12,0,0,0-.31,1.6A10.16,10.16,0,0,1,88,98.29,10.25,10.25,0,0,1,77,83.55a9.8,9.8,0,0,1,9.17-5.61,9.56,9.56,0,0,1,5.7,1.77,1,1,0,0,0,1.53-.1c1.94-1.76,3.92-3.49,5.92-5.17.65-.54.71-.88,0-1.43-6.45-5.26-13.63-6.52-21.23-3.21C70.16,73.25,66.35,79.69,66,86.89Zm13.33,1.3a6.87,6.87,0,0,0,6.8,6.89A7,7,0,0,0,93,88.22a7.08,7.08,0,0,0-6.86-6.91A6.89,6.89,0,0,0,79.3,88.19Z"/><path class="cls-2" d="M86.19,153.32c-16.56,0-33.12,0-49.68.05a6.88,6.88,0,0,1-4.67-2A83.49,83.49,0,0,1,22,141.74a85.39,85.39,0,0,1-11.89-17.83A84,84,0,0,1,1.85,96.5,85.65,85.65,0,0,1,7.56,53.89,83.35,83.35,0,0,1,18.23,35.18,84.65,84.65,0,0,1,90.69,1.35,84.51,84.51,0,0,1,138,19a84.41,84.41,0,0,1,28.42,39.63,85.29,85.29,0,0,1-5.15,67.12,83.31,83.31,0,0,1-20,25c-.23.19-.47.38-.68.59a6.91,6.91,0,0,1-5.32,2.08C118.85,153.27,102.52,153.32,86.19,153.32Zm-.12-3.47q24.6,0,49.19,0a3.86,3.86,0,0,0,2.7-1,83,83,0,0,0,17.76-20.52,80.53,80.53,0,0,0,11.72-38.12,77.93,77.93,0,0,0-1-17.65,81.81,81.81,0,0,0-45.72-60.22,79.43,79.43,0,0,0-29.3-7.56A81.75,81.75,0,0,0,68.86,6.51,81.54,81.54,0,0,0,5.35,96.74a79.31,79.31,0,0,0,8.55,27.09,82.34,82.34,0,0,0,20.38,25.09,4,4,0,0,0,2.71,1Q61.53,149.83,86.07,149.85Z"/><path class="cls-2" d="M86.12,162.2h43.81a8.08,8.08,0,0,1,1.1,0,1.59,1.59,0,0,1,1.52,1.55,1.57,1.57,0,0,1-1.27,1.76,4.72,4.72,0,0,1-1.19.12H42.38a5.2,5.2,0,0,1-1.48-.13,1.68,1.68,0,0,1,.32-3.31,10.07,10.07,0,0,1,1.1,0Z"/><path class="cls-2" d="M59.53,129.77h2a1,1,0,0,1,1.1,1.11q0,2,0,4c0,.78-.44,1.13-1.2,1.13H57.54a1,1,0,0,1-1.16-1.16v-3.89c0-.83.44-1.2,1.25-1.18.63,0,1.26,0,1.9,0Z"/><path class="cls-2" d="M72.76,129.76h1.58c1.36,0,1.58.21,1.59,1.53,0,1,0,2.05,0,3.07,0,1.45-.22,1.63-1.7,1.64H71c-.86,0-1.28-.38-1.27-1.26q0-1.94,0-3.87c0-.77.38-1.08,1.08-1.1s1.33,0,2,0Z"/><path class="cls-2" d="M112.72,129.77c.7,0,1.39,0,2.09,0a.89.89,0,0,1,1,1c0,1.4,0,2.79,0,4.18a.94.94,0,0,1-1,1c-1.33,0-2.66,0-4,0a1,1,0,0,1-1.18-1.16c0-1.29,0-2.59,0-3.88a1.06,1.06,0,0,1,1.24-1.19C111.46,129.78,112.09,129.77,112.72,129.77Z"/><path class="cls-2" d="M96.37,132.82c0-.63,0-1.26,0-1.89-.05-.86.37-1.18,1.19-1.17,1.26,0,2.51,0,3.77,0,.78,0,1.16.33,1.15,1.13,0,1.29,0,2.58,0,3.87,0,.83-.36,1.23-1.18,1.23H97.44a.94.94,0,0,1-1.07-1.1C96.39,134.21,96.37,133.51,96.37,132.82Z"/><path class="cls-2" d="M89.14,132.88c0,.7,0,1.4,0,2.09s-.3,1-1,1q-2,0-4.08,0A1,1,0,0,1,83,134.86c0-1.32,0-2.65,0-4a1,1,0,0,1,1.09-1.11h4c.75,0,1.07.39,1,1.12S89.14,132.22,89.14,132.88Z"/></g></g></svg>