<svg xmlns="http://www.w3.org/2000/svg" viewBox="0 0 166.35 166.35"><defs><style>.cls-1,.cls-2{fill:none;stroke-linecap:round;stroke-linejoin:round;stroke-width:6.55px;}.cls-1{stroke:#b1b2b8;}.cls-2{stroke:#009845;}</style></defs><g id="Capa_2" data-name="Capa 2"><g id="Layer_1" data-name="Layer 1"><polyline class="cls-1" points="98.79 147.24 82.95 163.07 67.56 147.68"/><line class="cls-1" x1="82.95" y1="163.07" x2="82.95" y2="144.7"/><polyline class="cls-1" points="93.91 120.89 83.02 131.78 72.43 121.19"/><line class="cls-1" x1="83.02" y1="131.78" x2="83.02" y2="119.14"/><polyline class="cls-1" points="67.56 19.11 83.4 3.27 98.79 18.67"/><line class="cls-1" x1="83.4" y1="3.27" x2="83.4" y2="21.65"/><polyline class="cls-1" points="72.43 45.46 83.33 34.57 93.91 45.15"/><line class="cls-1" x1="83.33" y1="34.57" x2="83.33" y2="47.21"/><polyline class="cls-1" points="19.11 98.79 3.27 82.95 18.67 67.56"/><line class="cls-1" x1="3.27" y1="82.95" x2="21.65" y2="82.95"/><polyline class="cls-1" points="45.46 93.91 34.57 83.02 45.15 72.43"/><line class="cls-1" x1="34.57" y1="83.02" x2="47.21" y2="83.02"/><polyline class="cls-1" points="147.24 67.56 163.07 83.4 147.68 98.79"/><line class="cls-1" x1="163.07" y1="83.4" x2="144.7" y2="83.4"/><polyline class="cls-1" points="120.89 72.43 131.78 83.33 121.19 93.91"/><line class="cls-1" x1="131.78" y1="83.33" x2="119.14" y2="83.33"/><path class="cls-2" d="M83.15,106.59a3,3,0,0,1-2.13-1L64.24,88.83c-1.24-1.24-2.54-2.44-3.69-3.77a2.73,2.73,0,0,1,.18-4q4.23-4.26,8.48-8.49L80.84,61c1.6-1.59,3.07-1.6,4.67,0l20,20a2.85,2.85,0,0,1,0,4.38q-10,10.07-20.13,20.12A3.19,3.19,0,0,1,83.15,106.59Z"/></g></g></svg>