<svg xmlns="http://www.w3.org/2000/svg" viewBox="0 0 132.75 109.09"><defs><style>.cls-1{fill:#009845;}.cls-2{fill:#2d2a26;}</style></defs><g id="Capa_2" data-name="Capa 2"><g id="Layer_1" data-name="Layer 1"><path class="cls-1" d="M102.77,78.29a21.93,21.93,0,0,0-28.56-9c-.39.19-.77.36-1.14.5l-1.85-3.08-1.78,3L66,75.45,64.7,77.59H77.77l-1.64-2.72a7.77,7.77,0,0,1,2.56-1c6.27-1.52,11.94-.49,16.44,4.23A14.39,14.39,0,0,1,97.55,94.6c-3,5.61-7.83,8.71-14.48,8.43-7.51-.3-12.09-4.2-14.54-10.39L63,95.7a17.31,17.31,0,0,0,2.17,3.81,22.26,22.26,0,0,0,29.32,6.66C104.66,100.37,108.26,88.2,102.77,78.29Z"/><path class="cls-2" d="M132.73,64.8h0a11.35,11.35,0,0,0-2-5.7,15.68,15.68,0,0,0-1.56-1.91,12.36,12.36,0,0,0-6.87-3.7,15.94,15.94,0,0,0,.09-1.87,24.19,24.19,0,0,0-8.9-17.72,26.88,26.88,0,0,0-11.07-5.45,20.87,20.87,0,0,0-10.1-.25,3.63,3.63,0,0,1-.47.09,10.48,10.48,0,0,1-.34-1.17c-.07-.28-.14-.56-.23-.83a35.36,35.36,0,0,0-8.9-15.64,37.74,37.74,0,0,0-12-7.84A35.12,35.12,0,0,0,49.72.66C31.56,4.07,20,16.41,18.87,33.67c0,.09,0,.16,0,.22l-.78.16C6.64,36.06-1.66,47.91.28,59.42a17.71,17.71,0,0,0,1.17,3.77A24.87,24.87,0,0,0,11.32,75c4.29,2.6,9.21,3.17,14,3.25,0-.12,0-.23,0-.36,0-1,0-2.21,0-3.5v-.51c-4.13-.08-8.16-.56-11.49-2.58a20.41,20.41,0,0,1-8.08-9.69,13.39,13.39,0,0,1-.9-2.85C3.23,49.63,10,39.92,18.88,38.35c2.07-.36,4.3-1,4.52-4.4,1-15.38,11-25.95,27.19-29a32.62,32.62,0,0,1,6-.57A30.24,30.24,0,0,1,68.5,6.82,33.17,33.17,0,0,1,79.08,13.7a31.21,31.21,0,0,1,7.79,13.78c.07.22.12.45.18.68a10.73,10.73,0,0,0,.72,2.16c.46.95,1.94,3,5.66,2.11a16.58,16.58,0,0,1,7.88.27,22.28,22.28,0,0,1,9.17,4.5,19.93,19.93,0,0,1,7.33,14.51,16.54,16.54,0,0,1-.16,2.16V54a3.33,3.33,0,0,0,.73,2.71,3.11,3.11,0,0,0,2.19,1,7.7,7.7,0,0,1,5.22,2.44,12.07,12.07,0,0,1,1.12,1.38,7.05,7.05,0,0,1,1.29,3.58,8.2,8.2,0,0,1-4.08,7.37,6.67,6.67,0,0,1-2.64,1,19.7,19.7,0,0,1-2.07.17l-1.48,0-.73,0H117c-1.46,0-2.93,0-4.39.06h-6.46a21.56,21.56,0,0,1,1.68,2.58c.33.59.62,1.19.89,1.8h3.92l4.48-.06h.19l.78,0c.44,0,.87,0,1.31,0a19.28,19.28,0,0,0,2.71-.21,11.34,11.34,0,0,0,4.5-1.63A12.55,12.55,0,0,0,132.73,64.8Z"/><ellipse class="cls-1" cx="58.19" cy="46.53" rx="28.35" ry="7.45" transform="translate(-0.06 0.07) rotate(-0.07)"/><path class="cls-1" d="M83.63,59.8A24.85,24.85,0,0,1,86.5,60c0-2.48,0-5,.06-7.43-2.22,2.67-9.72,4.82-19.47,5.65-2.81.24-5.8.38-8.91.38s-6.1-.12-8.91-.36c-9.7-.8-17.18-2.92-19.45-5.55v8c0,1.15,0,2.18,0,3.12,0,1.37.05,2.54.13,3.53,3.13,3.33,14.58,5.78,28.23,5.77.87,0,1.72,0,2.57,0A26.49,26.49,0,0,1,83.63,59.8Z"/><path class="cls-1" d="M58.48,78.14H58.2c-3.1,0-6.1-.12-8.91-.35-9.7-.81-17.18-2.93-19.45-5.56v8c0,1.15,0,2.18,0,3.12,0,1.37.05,2.54.12,3.53,3.1,3.29,14.33,5.73,27.77,5.77a27.31,27.31,0,0,1,.72-14.54Z"/></g></g></svg>