<svg xmlns="http://www.w3.org/2000/svg" viewBox="0 0 124.85 124.82"><defs><style>.cls-1{fill:#2d2a26;}.cls-2{fill:none;stroke:#009845;stroke-linecap:round;stroke-linejoin:round;stroke-width:4.6px;}</style></defs><g id="Capa_2" data-name="Capa 2"><g id="Layer_1" data-name="Layer 1"><path class="cls-1" d="M62.36,0V4.6h0a57.18,57.18,0,0,1,23,4.75l-.24.24-1.17,1.16c-1,1-2,1.94-2.94,2.94A52.13,52.13,0,1,0,54,113.85,52.19,52.19,0,0,0,113.77,71.6a53.35,53.35,0,0,0,.47-15.24c1.64-1.66,3.3-3.32,4.94-5a57.93,57.93,0,0,1-.62,24.93,58.07,58.07,0,0,1-56.12,43.89A57.79,57.79,0,0,1,18,25.51,57,57,0,0,1,62.35,4.6V0m0,0A62.41,62.41,0,0,0,17,105.18a62.24,62.24,0,0,0,82.91,7C125.57,92.82,128.69,62,121.48,42.64c-.11.1-.22.17-.31.27-3.77,3.77-7.55,7.52-11.29,11.32a1.69,1.69,0,0,0-.38,1.25,48.77,48.77,0,0,1-.26,15.3,47.6,47.6,0,1,1-28-52,1.61,1.61,0,0,0,.64.17,1.18,1.18,0,0,0,.85-.45c1.84-1.91,3.73-3.76,5.61-5.63,1.55-1.55,3.12-3.09,4.75-4.72A61.33,61.33,0,0,0,62.35,0Z"/><path class="cls-2" d="M118.38,23.46c0,.11-.08.23-.11.34A1,1,0,0,0,118.38,23.46Z"/><path class="cls-2" d="M114.44,13.55a6.62,6.62,0,0,0-7.06,1.9L62.52,60.3c-.26.26-.54.49-1,.92C61,60.58,60.5,60,60,59.45c-4.61-4.63-9.2-9.27-13.87-13.84A6.89,6.89,0,0,0,36,55c2.25,2.5,4.73,4.79,7.12,7.17,0,0,2.6,2.7,3.19,3.27,3.42,3.38,6.81,6.8,10.22,10.2a6.76,6.76,0,0,0,9.68.4c1.41-1.19,22.58-22.46,22.68-22.55,3.57-3.58,7.12-7.18,10.75-10.69.94-.91,19.3-17.86,19.63-22.46A6.47,6.47,0,0,0,114.44,13.55Z"/></g></g></svg>