<svg xmlns="http://www.w3.org/2000/svg" viewBox="0 0 126.31 132.66"><defs><style>.cls-1{fill:#009845;}.cls-2{fill:none;stroke:#009845;stroke-linecap:round;stroke-miterlimit:10;stroke-width:4.6px;}</style></defs><g id="Capa_2" data-name="Capa 2"><g id="Layer_1" data-name="Layer 1"><path d="M63.36,4.6c3.1,0,6.11,0,9,.05,1.5,0,1.81.17,2,1.92l.07.49c.44,3.54.89,7.2,1.24,10.78.37,3.84,2.24,6.45,5.57,7.76a33,33,0,0,1,8.44,4.9,7.93,7.93,0,0,0,5,1.84,9.13,9.13,0,0,0,3.83-.9c3.16-1.41,6.89-3.07,10.69-4.63a4.63,4.63,0,0,1,1.66-.44c.35,0,.81.45,1.34,1.35,3.09,5.13,6.17,10.47,9.14,15.87.51.91.6,1.41-.6,2.36-2.9,2.27-5.94,4.52-9.29,6.89-3,2.15-4.36,4.94-3.93,8.31a45.66,45.66,0,0,1,0,10.4,8.59,8.59,0,0,0,3.87,8.24c2.66,1.86,5.54,4,9.07,6.71,1.6,1.23,1.42,1.56.75,2.8-3,5.43-6,10.76-9.12,15.85-.71,1.16-1.06,1.16-1.19,1.16a4.45,4.45,0,0,1-1.63-.42c-3.73-1.51-7.1-3-10.32-4.48a9.69,9.69,0,0,0-4.13-1,8.56,8.56,0,0,0-5.29,1.91A34.42,34.42,0,0,1,81,107.24a8.13,8.13,0,0,0-5.34,7.2c-.26,2.46-.56,5-.85,7.4-.15,1.32-.31,2.64-.47,4-.24,2.13-.49,2.22-2.36,2.25l-3.48,0h-11l-3.23,0c-2,0-2.14-.34-2.35-2l-.17-1.37c-.41-3.13-.82-6.36-1.08-9.49-.34-4.16-2.37-7-6-8.29a27,27,0,0,1-7.52-4.37,9,9,0,0,0-5.68-2.11,10.14,10.14,0,0,0-4.39,1.09c-2.83,1.33-5.91,2.67-10,4.34a4.49,4.49,0,0,1-1.63.42c-.14,0-.55,0-1.36-1.35-3.19-5.35-6.22-10.6-9-15.61-.66-1.19-.79-1.63.74-2.81,3.46-2.67,6.34-4.8,9.06-6.71a8.47,8.47,0,0,0,3.9-8.3,42.5,42.5,0,0,1,0-10.33,8.43,8.43,0,0,0-3.89-8.32c-2.71-1.9-5.58-4-9.06-6.71C4.37,45.05,4.3,44.71,5.2,43.1c3-5.45,5.88-10.38,8.68-15.09.44-.74,1.07-1.62,1.53-1.62a5.41,5.41,0,0,1,1.91.52c3.56,1.47,7.05,3,10.36,4.51a9,9,0,0,0,3.84.9,8.48,8.48,0,0,0,5.33-2A30.9,30.9,0,0,1,45,25.58a8.59,8.59,0,0,0,5.67-7.71c.23-2.4.53-4.87.83-7.25.15-1.25.3-2.49.44-3.73.26-2.23.54-2.23,2.32-2.25,3.24,0,6.23,0,9.13,0m0-4.6c-3.06,0-6.11,0-9.17,0-4.29,0-6.35,2-6.85,6.32-.43,3.69-.93,7.38-1.28,11.08a4,4,0,0,1-2.75,3.84A35.47,35.47,0,0,0,34,26.74a4,4,0,0,1-2.47,1,4.72,4.72,0,0,1-1.92-.48c-3.48-1.6-7-3.12-10.52-4.59a9.76,9.76,0,0,0-3.67-.86c-2.22,0-3.92,1.23-5.48,3.87-3,5-5.9,10.1-8.75,15.2-2,3.6-1.41,6.46,1.82,9,3,2.34,6.1,4.63,9.23,6.83a3.9,3.9,0,0,1,2,4,47.59,47.59,0,0,0,0,11.44,3.92,3.92,0,0,1-2,4C9.08,78.26,6,80.55,3,82.89S-.85,88.17,1,91.57c2.93,5.3,6,10.54,9.07,15.74,1.45,2.43,3.15,3.6,5.31,3.6a9.14,9.14,0,0,0,3.37-.76c3.44-1.41,6.87-2.86,10.23-4.45a5.6,5.6,0,0,1,2.42-.65,4.48,4.48,0,0,1,2.82,1.12,32,32,0,0,0,8.8,5.09c2.13.77,2.86,2.19,3,4.33.3,3.7.8,7.39,1.28,11.08.52,4,2.66,5.91,6.85,6,1.1,0,2.19,0,3.29,0h11c1.19,0,2.37,0,3.55,0,4.3-.07,6.37-2,6.87-6.32.44-3.79.92-7.59,1.32-11.39a3.64,3.64,0,0,1,2.41-3.4A38.59,38.59,0,0,0,92.32,106a4,4,0,0,1,2.49-1,5.1,5.1,0,0,1,2.19.57q5.2,2.41,10.52,4.57a9.09,9.09,0,0,0,3.37.76c2.08,0,3.73-1.09,5.12-3.38q4.8-7.91,9.23-16c1.89-3.48,1.18-6.23-2-8.66S117.16,78.22,114,76a4,4,0,0,1-1.94-4,50.89,50.89,0,0,0,0-11.44c-.24-1.84.58-3,2-4,3.21-2.27,6.38-4.6,9.48-7,2.81-2.2,3.5-5.12,1.8-8.21q-4.47-8.09-9.23-16c-1.46-2.42-3.16-3.57-5.29-3.57a9,9,0,0,0-3.41.78c-3.64,1.5-7.24,3.08-10.82,4.69a4.78,4.78,0,0,1-2,.5,3.41,3.41,0,0,1-2.17-.84,37.34,37.34,0,0,0-9.62-5.59c-1.86-.73-2.49-2.06-2.67-3.92-.37-3.8-.84-7.6-1.32-11.39S76.28.09,72.37.05c-3,0-6,0-9,0Z"/><path class="cls-1" d="M63.19,30.73v4.6h.24A31.21,31.21,0,0,1,94.15,66.62a31.09,31.09,0,0,1-31,30.72h-.25A31.19,31.19,0,0,1,32.15,66.05a31.08,31.08,0,0,1,31-30.72v-4.6m0,0a35.61,35.61,0,0,0-.36,71.21h.28a35.61,35.61,0,0,0,.36-71.21Z"/><polyline class="cls-2" points="63.15 50.34 63.16 66.33 86.15 66.33"/></g></g></svg>