<svg xmlns="http://www.w3.org/2000/svg" viewBox="0 0 125.65 89.38"><defs><style>.cls-1{fill:#2d2a26;}.cls-2{fill:#009845;}</style></defs><g id="Capa_2" data-name="Capa 2"><g id="Layer_1" data-name="Layer 1"><path class="cls-1" d="M125.62,63.86h0a11.43,11.43,0,0,0-1.92-5.63,15.56,15.56,0,0,0-1.48-1.89,11.55,11.55,0,0,0-6.48-3.64,13.41,13.41,0,0,0,.08-1.82,24.17,24.17,0,0,0-8.4-17.46A25.2,25.2,0,0,0,96.94,28a19.12,19.12,0,0,0-9.57-.26,2.64,2.64,0,0,1-.42.08,9.23,9.23,0,0,1-.31-1.12c-.07-.28-.14-.55-.22-.82A35.11,35.11,0,0,0,78,10.52,35.65,35.65,0,0,0,66.64,2.78,32.14,32.14,0,0,0,47.14.64C29.94,4,19,16.11,17.88,33.09c0,.08,0,.15,0,.2l-.72.16c-10.82,2-18.71,13.62-16.88,25a17.88,17.88,0,0,0,1.1,3.71,24.21,24.21,0,0,0,9.34,11.6A23.09,23.09,0,0,0,22,76.88V72.51A18.63,18.63,0,0,1,13,70a19.89,19.89,0,0,1-7.62-9.52,13.88,13.88,0,0,1-.84-2.81c-1.45-8.93,4.92-18.45,13.35-20,2-.35,4.09-1,4.31-4.35C23.23,18.27,32.61,7.9,48,4.92a29.83,29.83,0,0,1,5.66-.56A27.7,27.7,0,0,1,64.89,6.78a31.08,31.08,0,0,1,10,6.77A26.84,26.84,0,0,1,80,21.18c.65,1.42,1.21,2.89,1.72,4.38a42.23,42.23,0,0,0,1.4,4.34,4,4,0,0,0,1.73,1.86c1.48.8,2.91.28,4.46.09a20.19,20.19,0,0,1,21.21,13.77,17.58,17.58,0,0,1,.9,5.33c0,1.63-.55,3.56.62,4.94.89,1,2.34,1,3.57,1.3A6.61,6.61,0,0,1,119,59.28a10.47,10.47,0,0,1,1.07,1.36,7.07,7.07,0,0,1,1.2,3.51,8.12,8.12,0,0,1-3.85,7.22,6.08,6.08,0,0,1-2.49.93,13.43,13.43,0,0,1-1.92.17h0q-.7,0-1.41,0l-.68,0h-.19c-1.3,0-2.66,0-4.16.06h-4.18l-4.19,0H96.93V76.9h1.21l4.2,0h4.22c1.53,0,2.91,0,4.23-.05H111l.73,0c.42,0,.84,0,1.25,0a19.08,19.08,0,0,0,2.57-.21A10.55,10.55,0,0,0,119.8,75,12.48,12.48,0,0,0,125.62,63.86Z"/><path class="cls-2" d="M47.79,37.8,34.6,39.88a1.48,1.48,0,0,0-1.4,1.3v45a1.5,1.5,0,0,0,1.44,1.31l13.19,1.83c1.08.14,2.07-.48,2.07-1.31V39.11C49.9,38.26,48.88,37.63,47.79,37.8Z"/><path class="cls-2" d="M92,44.35,52.39,37.88a.53.53,0,0,0-.65.46V88.81a.52.52,0,0,0,.64.47L92,83.2a.49.49,0,0,0,.45-.46V44.81A.5.5,0,0,0,92,44.35Zm-26.67,40L55.47,85.5V41.74l9.87,1.42ZM77.91,82.8,67.7,83.87V43.37l10.21,1.31ZM89.8,81l-9.4,1V45.31l9.4,1.19Z"/></g></g></svg>