<svg xmlns="http://www.w3.org/2000/svg" viewBox="0 0 117.89 101.3"><defs><style>.cls-1{fill:#009845;}.cls-2{fill:#2d2a26;}</style></defs><g id="Capa_2" data-name="Capa 2"><g id="Layer_1" data-name="Layer 1"><polygon class="cls-1" points="63.72 56.23 63.72 85.36 52.51 85.23 52.51 56.23 44.02 56.23 58.11 43.48 72.2 56.23 63.72 56.23"/><polygon class="cls-1" points="34.81 88.55 34.81 59.42 46.02 59.55 46.02 88.55 54.5 88.55 40.41 101.3 26.32 88.55 34.81 88.55"/><path class="cls-2" d="M117.87,63.94h0a12,12,0,0,0-1.8-5.63,15.63,15.63,0,0,0-1.38-1.88,10.69,10.69,0,0,0-6.1-3.65,13.86,13.86,0,0,0,.08-1.85,24.85,24.85,0,0,0-7.88-17.47A23.13,23.13,0,0,0,91,28.08a16.83,16.83,0,0,0-9-.25,2.86,2.86,0,0,1-.42.08,8.49,8.49,0,0,1-.3-1.14c-.07-.29-.13-.56-.2-.83-1.69-6.39-4.27-11.43-7.9-15.41A33.08,33.08,0,0,0,62.52,2.79,28.38,28.38,0,0,0,44.23.64C28.1,4,17.84,16.12,16.78,33.12a1.27,1.27,0,0,1,0,.22l-.69.16c-10.15,2-17.54,13.63-15.82,25a18.42,18.42,0,0,0,1,3.72c1.82,4.9,4.86,9.14,8.75,11.6A23.85,23.85,0,0,0,20.31,77c2.31.22,9.62.34,9.76.28L30,73.42S19,74,12.19,70.15C9,68.31,6.54,64.66,5,60.6a15,15,0,0,1-.8-2.82c-1.35-9,4.63-18.51,12.56-20,1.84-.36,3.82-1,4-4.34C21.75,18.26,30.57,7.86,45,4.87a26.36,26.36,0,0,1,5.32-.56A24.69,24.69,0,0,1,60.9,6.74a29.17,29.17,0,0,1,9.39,6.79,31.63,31.63,0,0,1,6.9,13.58c.06.22.11.44.16.67A11.34,11.34,0,0,0,78,29.91c.41.93,1.71,3,5,2.09a13.24,13.24,0,0,1,7,.27,19.19,19.19,0,0,1,8.14,4.45A20.4,20.4,0,0,1,104.64,51a20.2,20.2,0,0,1-.14,2.14l0,.11a3.58,3.58,0,0,0,.65,2.67,2.64,2.64,0,0,0,2,1,6.57,6.57,0,0,1,4.63,2.4,11.87,11.87,0,0,1,1,1.36,7.61,7.61,0,0,1,1.13,3.53,8.34,8.34,0,0,1-3.63,7.26,5.47,5.47,0,0,1-2.35.94,15.35,15.35,0,0,1-1.83.17c-.43,0-.88,0-1.32,0l-.65,0h-.17c-1.3,0-2.6,0-3.91,0H96.06l-27.28,0c0,1,0,3,0,4.32,1.16,0,30,0,31.18,0s2.64,0,4,0h.18l.69,0,1.16,0a18.18,18.18,0,0,0,2.41-.21,9.53,9.53,0,0,0,4-1.6A12.74,12.74,0,0,0,117.87,63.94Z"/></g></g></svg>