<svg xmlns="http://www.w3.org/2000/svg" viewBox="0 0 134.33 92.22"><defs><style>.cls-1{fill:#2d2a26;}.cls-2{fill:#009845;}</style></defs><g id="Capa_2" data-name="Capa 2"><g id="Layer_1" data-name="Layer 1"><path class="cls-1" d="M132.25,59.4a16.77,16.77,0,0,0-1.58-1.92,12.41,12.41,0,0,0-6.94-3.71,16.4,16.4,0,0,0,.09-1.89,24.23,24.23,0,0,0-9-17.79,27.41,27.41,0,0,0-11.2-5.49,21.36,21.36,0,0,0-10.22-.25,3.5,3.5,0,0,1-.47.08,9.25,9.25,0,0,1-.35-1.17c-.07-.28-.14-.56-.22-.84a35.43,35.43,0,0,0-9-15.7A38,38,0,0,0,71.23,2.84,35.7,35.7,0,0,0,50.39.66C32,4.05,20.32,16.42,19.12,33.74a1.27,1.27,0,0,1,0,.22c-.15,0-.4.1-.79.17-11.56,2-20,13.88-18,25.43a18.07,18.07,0,0,0,1.18,3.79,24,24,0,0,0,10,11.82,29.59,29.59,0,0,0,11.71,3.24c1.49.12,4.8.21,7.43.26a37.5,37.5,0,0,1-2.33-4c-4.29-.27-10-1-14.35-3.23-3.7-1.88-6.44-5.59-8.16-9.73a13.58,13.58,0,0,1-.9-2.87C3.28,49.74,10.1,40,19.13,38.44c2.09-.36,4.35-1,4.58-4.41C24.78,18.6,34.83,8,51.27,5a32.44,32.44,0,0,1,6.06-.58A31,31,0,0,1,69.39,6.86a33.5,33.5,0,0,1,10.69,6.92A31.21,31.21,0,0,1,88,27.61l.18.69a11.09,11.09,0,0,0,.73,2.17c.46,1,2,3.06,5.72,2.12a17,17,0,0,1,8,.28,22.7,22.7,0,0,1,9.28,4.53A19.9,19.9,0,0,1,119.22,52a16.69,16.69,0,0,1-.16,2.17v.11a3.34,3.34,0,0,0,.73,2.73A3.13,3.13,0,0,0,122,58a7.76,7.76,0,0,1,5.27,2.45,10.51,10.51,0,0,1,1.14,1.39,7.13,7.13,0,0,1,1.3,3.59,8.22,8.22,0,0,1-4.14,7.39,6.79,6.79,0,0,1-2.68,1,19.89,19.89,0,0,1-2.08.17l-1.5,0-.75,0h-.19c-1.48,0-3,.05-4.45.06s-3,0-4.47,0H86.94a38.32,38.32,0,0,1-2.53,4.4c9.89,0,28.54,0,29.53,0l4.54-.06h.19l.79,0c.44,0,.89,0,1.33,0a23.39,23.39,0,0,0,2.74-.21,11.61,11.61,0,0,0,4.56-1.63,12.55,12.55,0,0,0,6.21-11.36h0A11.28,11.28,0,0,0,132.25,59.4Z"/><path class="cls-2" d="M42.7,61.41H31.12c-1.34,0-1.48-.11-1.49-1.36,0-5.2,0-10.4-.07-15.6,0-.9.43-1.09,1.24-1.07a34.21,34.21,0,0,0,10.42-1.33,22.62,22.62,0,0,0,6.12-2.79,18.41,18.41,0,0,1,7.46-2.62c.76-.11,1.05.16,1.05.88q0,11.48,0,23c0,.83-.46.94-1.16.94C50.69,61.4,46.7,61.41,42.7,61.41Z"/><path class="cls-2" d="M72.45,61.41c-3.9,0-7.79,0-11.69,0-1,0-1.3-.28-1.29-1.22,0-7.5,0-15,0-22.49,0-1.11.15-1.2,1.33-1a19.52,19.52,0,0,1,7.52,2.77c4.58,2.86,9.71,3.83,15.08,3.91,2.65,0,2.32-.22,2.32,2.25,0,4.59,0,9.17,0,13.76,0,.29,0,.58,0,.87-.05.81-.41,1.18-1.34,1.17C80.38,61.39,76.41,61.41,72.45,61.41Z"/><path class="cls-2" d="M55.84,78.74c0,4.2,0,8.39,0,12.59,0,1-.11,1.1-1.06.55a68.88,68.88,0,0,1-13-9.29C36.92,78,33,72.74,30.91,66.37c-.44-1.38-.38-1.48,1.16-1.48H54.41c1.41,0,1.43,0,1.43,1.35Z"/><path class="cls-2" d="M59.49,78.67c0-4.13,0-8.26,0-12.4,0-1.35,0-1.38,1.39-1.38H83.42c1.33,0,1.42.1,1,1.35a35.09,35.09,0,0,1-7.28,12.53A63,63,0,0,1,60.48,91.89c-.92.52-1,.48-1-.53C59.48,87.13,59.49,82.9,59.49,78.67Z"/></g></g></svg>