<svg xmlns="http://www.w3.org/2000/svg" viewBox="0 0 112.07 110.97"><defs><style>.cls-1{fill:none;stroke:#009845;stroke-miterlimit:10;stroke-width:4.6px;}</style></defs><g id="Capa_2" data-name="Capa 2"><g id="Layer_1" data-name="Layer 1"><path class="cls-1" d="M27.43,49.73q-11.07,0-22.15,0c-2.56,0-2.84-.22-2.85-2.61-.06-9.94,0-19.89-.13-29.83,0-1.73.81-2.09,2.37-2A65.11,65.11,0,0,0,24.6,12.7,42.88,42.88,0,0,0,36.29,7.36a35,35,0,0,1,14.28-5c1.45-.22,2,.3,2,1.68q0,22,0,43.92c0,1.59-.89,1.8-2.23,1.79C42.71,49.72,35.07,49.73,27.43,49.73Z"/><path class="cls-1" d="M84.33,49.73c-7.45,0-14.9,0-22.35,0-1.84,0-2.49-.53-2.48-2.33.06-14.33,0-28.67,0-43,0-2.13.29-2.3,2.54-2A37.48,37.48,0,0,1,76.46,7.77c8.76,5.47,18.58,7.31,28.85,7.47,5.08.08,4.43-.41,4.44,4.3,0,8.78,0,17.56,0,26.33,0,.56,0,1.11-.07,1.67-.1,1.54-.79,2.25-2.57,2.23C99.49,49.68,91.91,49.73,84.33,49.73Z"/><path class="cls-1" d="M52.56,82.87q0,12,0,24.09c0,2-.22,2.1-2,1.05A132,132,0,0,1,25.74,90.23c-9.38-8.82-16.93-18.82-20.86-31-.85-2.64-.72-2.83,2.21-2.83H49.83c2.7,0,2.73,0,2.73,2.58Q52.58,70.91,52.56,82.87Z"/><path class="cls-1" d="M59.53,82.74V59c0-2.59,0-2.64,2.66-2.64H105.3c2.56,0,2.72.19,2,2.58a67.27,67.27,0,0,1-13.94,24c-9,10.29-19.92,18.29-31.9,25.1-1.75,1-1.89.92-1.89-1Q59.51,94.88,59.53,82.74Z"/></g></g></svg>