<svg xmlns="http://www.w3.org/2000/svg" viewBox="0 0 136.58 144.44"><defs><style>.cls-1{fill:#2d2a26;}.cls-2,.cls-3{fill:none;stroke-linecap:round;stroke-miterlimit:10;stroke-width:4.6px;}.cls-2{stroke:#2d2a26;}.cls-3{stroke:#009845;}</style></defs><g id="Capa_2" data-name="Capa 2"><g id="Layer_1" data-name="Layer 1"><path class="cls-1" d="M77,137.18l2.09,0a1.38,1.38,0,0,1,1.33,1.29,1.18,1.18,0,0,1-1.2,1.29c-2,0-4,.06-6,.06s-3.84,0-5.75-.05a1.3,1.3,0,0,1,.08-2.58c.7,0,1.41,0,2.12,0H77m0-4.6-3.7,0-3.65,0c-.75,0-1.5,0-2.24,0a5.9,5.9,0,0,0,0,11.78c1.94,0,3.88.05,5.83.05s4.07,0,6.11-.06A5.78,5.78,0,0,0,85,138.46a6,6,0,0,0-5.83-5.86c-.73,0-1.46,0-2.2,0Z"/><path class="cls-2" d="M7.72,62.78a60.48,60.48,0,0,1,121,0"/><path class="cls-2" d="M129.19,106.05c-.46,1-.53.67-1.06,1.67-8.07,15.21-24,26.5-43.13,29.8"/><path class="cls-1" d="M11.39,68.52v32.93H4.6V68.52h6.79m1.13-4.6h-9A3.47,3.47,0,0,0,0,67.39v35.19a3.47,3.47,0,0,0,3.47,3.47h9A3.47,3.47,0,0,0,16,102.58V67.39a3.47,3.47,0,0,0-3.47-3.47Z"/><path class="cls-1" d="M132,68.52v32.93H125.2V68.52H132m1.13-4.6h-9a3.47,3.47,0,0,0-3.47,3.47v35.19a3.47,3.47,0,0,0,3.47,3.47h9a3.47,3.47,0,0,0,3.47-3.47V67.39a3.47,3.47,0,0,0-3.47-3.47Z"/><path class="cls-3" d="M46.8,105.92l.13.13c.29-.1.58-.22.88-.31l15-4.6a2.3,2.3,0,0,1,1-.14,40.25,40.25,0,0,0,12.58-.53c7.76-1.52,14.58-4.82,20-10.75A22.46,22.46,0,0,0,102.49,75a21.61,21.61,0,0,0-4.2-13.49,31.53,31.53,0,0,0-14.4-10.95,42.18,42.18,0,0,0-21-2.67,38.86,38.86,0,0,0-16.09,5.5A28.49,28.49,0,0,0,36.49,63.91a21.15,21.15,0,0,0-2.35,14.52A24,24,0,0,0,42,91.89a33.72,33.72,0,0,0,7.88,5.22c.87.42,1,.69.55,1.56s-.8,1.6-1.2,2.4Z"/><path class="cls-3" d="M52,78.42a4.15,4.15,0,1,1,4.28-4.1A4.1,4.1,0,0,1,52,78.42Z"/><path class="cls-3" d="M84.73,78.42a4.15,4.15,0,1,1-.07-8.3,4.15,4.15,0,1,1,.07,8.3Z"/><path class="cls-3" d="M68.31,78.42a4.15,4.15,0,1,1,.07-8.3,4.15,4.15,0,1,1-.07,8.3Z"/></g></g></svg>