<svg xmlns="http://www.w3.org/2000/svg" viewBox="0 0 48.2 67.73"><defs><style>.cls-1,.cls-2{fill:none;stroke-linecap:round;stroke-linejoin:round;stroke-width:2px;}.cls-1{stroke:#2d2a26;}.cls-2{stroke:#009845;}</style></defs><g id="Capa_2" data-name="Capa 2"><g id="Layer_1" data-name="Layer 1"><path class="cls-1" d="M27.85,25a5.86,5.86,0,0,1,2.2,1.89,5.68,5.68,0,0,1,.89,3.35A6.35,6.35,0,0,1,30.3,33a5.28,5.28,0,0,1-2.06,2.17,6.83,6.83,0,0,1-3.58.85h-.23v2.63h-.66V36a7.66,7.66,0,0,1-3.22-1,6.35,6.35,0,0,1-2.22-2.11,6.23,6.23,0,0,1-1-2.65H18a5.65,5.65,0,0,0,.78,2.14,6.26,6.26,0,0,0,1.91,2,6.71,6.71,0,0,0,3.06,1.06V24.21A23.36,23.36,0,0,1,20.33,23a5.66,5.66,0,0,1-2.18-1.81,5.28,5.28,0,0,1-.89-3.2,5.27,5.27,0,0,1,1.63-4,6.39,6.39,0,0,1,4.62-1.56h.26V9.52h.66v3a6.61,6.61,0,0,1,4.06,1.7,6.36,6.36,0,0,1,1.89,3.26h-.66A6.11,6.11,0,0,0,28,14.66a5.76,5.76,0,0,0-3.61-1.59V23.75A23.11,23.11,0,0,1,27.85,25Zm-9.16-4.24a5.07,5.07,0,0,0,2,1.64,21.19,21.19,0,0,0,3.11,1.14V13h-.26a6.09,6.09,0,0,0-4.06,1.3A4.52,4.52,0,0,0,17.92,18,4.65,4.65,0,0,0,18.69,20.78ZM28.83,34a5.1,5.1,0,0,0,1.45-3.72,5,5,0,0,0-.79-2.94,5.2,5.2,0,0,0-2-1.74,18.09,18.09,0,0,0-3.07-1.17V35.46h.23A5.54,5.54,0,0,0,28.83,34Z"/><circle class="cls-1" cx="24.1" cy="24.1" r="23.1"/><line class="cls-2" x1="24.1" y1="66.73" x2="24.1" y2="53.42"/><polyline class="cls-2" points="18.73 62.01 24.1 66.73 29.47 62.01"/><line class="cls-2" x1="11.24" y1="60.34" x2="11.24" y2="49.39"/><polyline class="cls-2" points="5.88 55.62 11.24 60.34 16.61 55.62"/><line class="cls-2" x1="36.95" y1="60.34" x2="36.95" y2="49.39"/><polyline class="cls-2" points="31.59 55.62 36.95 60.34 42.32 55.62"/></g></g></svg>