<svg xmlns="http://www.w3.org/2000/svg" viewBox="0 0 77.83 39.77"><defs><style>.cls-1,.cls-2{fill:none;stroke-linecap:round;stroke-linejoin:round;stroke-width:2px;}.cls-1{stroke:#2d2a26;}.cls-2{stroke:#009845;}</style></defs><g id="Capa_2" data-name="Capa 2"><g id="Layer_1" data-name="Layer 1"><line class="cls-1" x1="26.12" y1="28.71" x2="52.47" y2="28.71"/><path class="cls-2" d="M65.93,27.36V26a1.28,1.28,0,0,0-2.55,0v1.32a2,2,0,0,0-.81,1.6,2.08,2.08,0,0,0,4.16,0A2,2,0,0,0,65.93,27.36Z"/><rect class="cls-2" x="52.47" y="17.2" width="24.37" height="21.57" rx="3.32"/><path class="cls-2" d="M55.81,16.86v-7A8.84,8.84,0,0,1,64.65,1h0a8.84,8.84,0,0,1,8.84,8.84v7"/><path class="cls-2" d="M14.47,27.36V26a1.28,1.28,0,0,0-2.56,0v1.32a2,2,0,0,0-.8,1.6,2.08,2.08,0,0,0,4.15,0A2,2,0,0,0,14.47,27.36Z"/><rect class="cls-2" x="1" y="17.2" width="24.37" height="21.57" rx="3.32"/><path class="cls-2" d="M4.34,16.86v-7A8.84,8.84,0,0,1,13.18,1h0A8.84,8.84,0,0,1,22,9.84v7"/></g></g></svg>