<svg xmlns="http://www.w3.org/2000/svg" viewBox="0 0 71.44 59.06"><defs><style>.cls-1,.cls-3{fill:none;stroke-linecap:round;stroke-linejoin:round;stroke-width:2px;}.cls-1{stroke:#2d2a26;}.cls-2{fill:#009845;stroke-miterlimit:10;stroke-width:0.5px;}.cls-2,.cls-3{stroke:#009845;}</style></defs><g id="Capa_2" data-name="Capa 2"><g id="Layer_1" data-name="Layer 1"><path class="cls-1" d="M19.3,44.82H14.66C4.27,44.81-2.79,32.73,3.2,23.9A13.56,13.56,0,0,1,9,19.12c.75-.33.81-.95,1-1.6a9.71,9.71,0,0,1,7.92-7.83,8.28,8.28,0,0,1,6.94,1.76C28.64,3.84,36,0,44.15,1.22A18.49,18.49,0,0,1,59,15.06a16.72,16.72,0,0,1,.54,4.1,1.06,1.06,0,0,0,.89,1.21A13.74,13.74,0,0,1,68.67,26a11.48,11.48,0,0,1,1.46,8.84,13,13,0,0,1-6.38,8.56c-1.84,1-7.59,1.43-9.69,1.43"/><path class="cls-2" d="M36.55,43.69a1.09,1.09,0,0,1-1-1.39.13.13,0,0,0,0-.16l-2.38-2.29-2.39-2.28a.4.4,0,0,1-.12-.42.37.37,0,0,1,.31-.3.39.39,0,0,1,.38.1l.92.88,1,1,.93.9L36,41.5a.2.2,0,0,0,.23.06.92.92,0,0,1,.59,0,.13.13,0,0,0,.14,0l1.91-2.11.93-1a.41.41,0,1,1,.62.55c-.26.3-.52.59-.79.88l-2,2.24a.16.16,0,0,0,0,.17A1.08,1.08,0,0,1,36.55,43.69Zm0-.76a.34.34,0,1,0,0-.67.34.34,0,1,0,0,.67Z"/><path class="cls-2" d="M46.45,43H46a.41.41,0,0,1-.42-.42.4.4,0,0,1,.42-.42q.45,0,.9,0a.41.41,0,0,1,.43.42.42.42,0,0,1-.43.42Z"/><path class="cls-2" d="M26.65,42.19h.44a.42.42,0,0,1,.05.83h-1a.4.4,0,0,1-.38-.44.41.41,0,0,1,.42-.39Z"/><path class="cls-2" d="M36.14,52.49v-.44a.41.41,0,0,1,.42-.42.4.4,0,0,1,.42.42V53a.42.42,0,0,1-.42.43.42.42,0,0,1-.42-.43Z"/><path class="cls-2" d="M37,32.69v.45a.42.42,0,0,1-.83,0,8.34,8.34,0,0,1,0-1,.39.39,0,0,1,.44-.37.41.41,0,0,1,.39.42Z"/><path class="cls-3" d="M29.61,26a16.78,16.78,0,1,1-9.84,15.28"/><polyline class="cls-3" points="32.56 28.07 28.05 27.2 28.92 22.7"/></g></g></svg>