<svg xmlns="http://www.w3.org/2000/svg" viewBox="0 0 155.34 185.52"><defs><style>.cls-1,.cls-2,.cls-3{fill:none;stroke-width:6.71px;}.cls-1{stroke:#b1b2b8;}.cls-1,.cls-3{stroke-linecap:round;stroke-linejoin:round;}.cls-2,.cls-3{stroke:#009845;}.cls-2{stroke-miterlimit:10;}</style></defs><g id="Capa_2" data-name="Capa 2"><g id="Layer_1" data-name="Layer 1"><path class="cls-1" d="M3.46,70.53H3.4c0,12.4-.13,24.79,0,37.18a75.08,75.08,0,0,0,6.22,29.77c12.85,29.11,40.08,46.06,72.1,44.6a73.7,73.7,0,0,0,69.4-64.23c1.41-11.22.55-22.46.67-33.69.19-18.14,0-36.28.08-54.43,0-3-.75-4.12-3.94-3.78-2.9.32-5.87-.17-8.8-.18-22-.07-41.78-6.28-58.49-21-2.34-2-3.92-1.86-6.13.1A82.89,82.89,0,0,1,51.91,19.08c-14.2,6.05-29.23,7-44.35,6.84-3.73,0-4.17,1.28-4.15,4.37C3.53,43.7,3.46,57.12,3.46,70.53Z"/><path class="cls-2" d="M77.66,70.21c-2.7,0-5.4.17-8.08.35-6.81.47-13.49,2.26-18.5,7.21-3.66,3.61-4.94,9.64-5.08,14.64a84.78,84.78,0,0,0,3.32,24.21c3.09,11.55,7.45,22.56,16.39,31.13,7.77,7.45,15.72,7.8,23.1,0a69.29,69.29,0,0,0,16.38-28.73,84.81,84.81,0,0,0,2.9-16.29c.44-5.34,1-11.46,0-16.76-1.51-7.65-8.14-12.36-15.34-14.21A57.83,57.83,0,0,0,77.66,70.21Z"/><path class="cls-2" d="M57.35,73c2.85-10.71,10.71-18.41,20-18.41s17.11,7.7,20,18.41"/><path class="cls-3" d="M50.53,37S56.38,54.58,69,56.8"/><path class="cls-3" d="M33,49.47S27.58,66.17,47.52,82.2"/><path class="cls-3" d="M26.72,123.44S24.51,97.73,45.64,94.06"/><path class="cls-3" d="M45.26,155.7s-11.35-21.76,3-40.63"/><path class="cls-3" d="M105.3,37S99.45,54.58,86.87,56.8"/><path class="cls-3" d="M122.8,49.47s5.46,16.7-14.48,32.73"/><path class="cls-3" d="M129.11,123.44s2.22-25.71-18.92-29.38"/><path class="cls-3" d="M110.57,155.7s11.77-22.55-3.74-41.63"/></g></g></svg>