<svg xmlns="http://www.w3.org/2000/svg" viewBox="0 0 116.45 164"><defs><style>.cls-1,.cls-2{fill:none;stroke:#009845;stroke-width:6.55px;}.cls-1{stroke-linecap:round;stroke-linejoin:round;}.cls-2{stroke-miterlimit:10;}</style></defs><g id="Capa_2" data-name="Capa 2"><g id="Layer_1" data-name="Layer 1"><path class="cls-1" d="M22.24,56.81c0-6,0-12.24.1-18.35C22.81,18.79,39.08,3,58.44,3.28A36,36,0,0,1,94.11,38.47c.15,6.08.12,12.27.1,18.26,0,5.16,0,10.32,0,15.48A4,4,0,0,1,93.6,75a4.13,4.13,0,0,1-2.95.66q-7-.09-13.91-.09l-9.26,0-9.25,0L49,75.6c-7.72,0-15.46,0-23.17.07-1.63,0-2.48-.2-2.95-.66a4,4,0,0,1-.65-2.81C22.28,67.07,22.26,61.94,22.24,56.81Z"/><path class="cls-1" d="M113.15,153.62c0,5.82-1.29,7.08-7.23,7.09q-47.7,0-95.38,0c-5.94,0-7.23-1.26-7.24-7.08q0-35.55,0-71.09c0-6,.83-6.81,6.78-6.83q10.35,0,20.69,0H72q17.22,0,34.38,0c6,0,6.79.85,6.8,6.82Q113.2,118.08,113.15,153.62Z"/><path class="cls-2" d="M66.49,117.58v-8.52a8.23,8.23,0,1,0-16.46,0v8.47a13,13,0,0,0-5.18,10.3,13.38,13.38,0,0,0,26.75,0A13.06,13.06,0,0,0,66.49,117.58Z"/></g></g></svg>