<svg xmlns="http://www.w3.org/2000/svg" viewBox="0 0 321.41 158.34"><defs><style>.cls-1,.cls-3{fill:none;stroke-width:6.8px;}.cls-1{stroke:#009845;stroke-miterlimit:10;}.cls-2{fill:#009845;}.cls-3{stroke:#2d2a26;stroke-linecap:round;stroke-linejoin:round;}</style></defs><g id="Capa_2" data-name="Capa 2"><g id="Layer_1" data-name="Layer 1"><path class="cls-1" d="M289.66,130.25a4.55,4.55,0,0,1-3.08-.95,26.83,26.83,0,0,1-3.54-2.66c-2.62-2.71-5.25-2.92-8.55-1-1.8,1-2.82,2-3,4.06a56.37,56.37,0,0,1-1,6.7,4.41,4.41,0,0,1-4.37,3.83c-6.32.28-12.66.73-19,.07-3.39-.35-4.47-1.45-5.07-4.87-.38-2.14-.74-4.29-1-6.44-.16-1.6-1-2.34-2.32-3.13-3.55-2.17-6.61-1.9-9.46,1.18a17.48,17.48,0,0,1-2.65,2.1,5.59,5.59,0,0,1-7.58-.55Q213,122.48,207,116.39c-2.33-2.34-2.54-4.81-.64-7.5,1.31-1.85,2.66-3.67,4.07-5.43a3.16,3.16,0,0,0,.43-3.84A12.71,12.71,0,0,1,209.76,97c-.5-1.9-1.77-2.58-3.61-2.77-2.24-.24-4.48-.61-6.7-1-2.81-.52-4.18-2-4.22-4.77q-.15-9.39,0-18.78c0-2.61,1.61-4.3,4.3-4.8,2.3-.44,4.62-.8,7-1.06a3.36,3.36,0,0,0,3.24-2.52,16.22,16.22,0,0,1,1.18-2.89,3,3,0,0,0-.41-3.61c-1.49-1.93-3-3.87-4.31-5.9-1.66-2.5-1.44-4.68.67-6.83q6.22-6.32,12.55-12.53c2.39-2.33,4.49-2.44,7.25-.54,1.78,1.24,3.48,2.6,5.23,3.89,2.9,2.11,8.82-.37,9.32-3.89.33-2.32.62-4.65,1-7,.51-2.69,2.14-4.15,4.87-4.18,6.26-.08,12.52-.09,18.78,0a4.55,4.55,0,0,1,4.73,4c.43,2.31.8,4.63,1,7,.17,1.76,1,2.63,2.53,3.54,3.62,2.15,6.59,1.66,9.41-1.3a16.5,16.5,0,0,1,2.89-2.21c2.58-1.7,4.89-1.64,7.11.5,4.31,4.17,8.53,8.43,12.7,12.73A5.19,5.19,0,0,1,306.6,49c-1.34,1.92-2.8,3.76-4.17,5.66-1.83,2.53.51,8.47,3.58,9,2.4.43,4.81.74,7.22,1.07a4.71,4.71,0,0,1,4.47,4.66,129.92,129.92,0,0,1-.11,19.53c-.23,2.46-1.76,3.88-4.23,4.26-1.72.27-3.43.59-5.14.85-4.09.64-6.05,2.61-6.76,6.76a3.26,3.26,0,0,0,.91,2.61c1.35,1.81,2.77,3.58,4.06,5.43,1.92,2.76,1.74,5.15-.58,7.51-4,4.09-8.1,8.12-12.15,12.18A5.32,5.32,0,0,1,289.66,130.25Z"/><path class="cls-2" d="M116.11,72.83c-.46,13-7,26-20.31,35.46A2.88,2.88,0,0,0,94.34,111c.09,2.25,0,4.49,0,6.73A10.31,10.31,0,0,1,91,125.61c-.67.62-.62,1-.3,1.8,2.39,5.58,1.66,13.67-5.25,16.31-.88.33-1,1.08-1.15,1.83a15.4,15.4,0,0,1-13.05,12.59A15.62,15.62,0,0,1,53.6,145.58a2.5,2.5,0,0,0-1.66-2.14A9.61,9.61,0,0,1,46,134.53c-.12-2.53-.12-5.05,1.24-7.34a1,1,0,0,0-.23-1.45c-3-2.53-3.54-6-3.57-9.66,0-1.86-.08-3.72,0-5.58a2.35,2.35,0,0,0-1.17-2.29C33,101.58,26.52,92.79,23.71,81.63c-4.09-16.24-.62-30.87,10.5-43.4C44,27.17,56.63,22.09,71.35,22.66a45.08,45.08,0,0,1,28.14,11.2C110.07,42.89,116.08,55.79,116.11,72.83Zm-47,31.25c6.74,0,13.47,0,20.2,0a4.85,4.85,0,0,0,3.06-.94c12.85-9.44,18.87-22.18,17.26-38-2.34-23.06-24-39.39-46.94-35.82C44,32.24,29.34,48.2,28.45,67c-.73,15.2,5.26,27.33,17.66,36.23a4.47,4.47,0,0,0,2.76.83C55.6,104.07,62.33,104.08,69.06,104.08Zm-.19,6.31c-5.8,0-11.6,0-17.4,0-1.24,0-1.8.36-1.74,1.68.08,1.69,0,3.39,0,5.09,0,3.36,1.59,4.95,4.92,5,3.72,0,7.44,0,11.16,0,5.9,0,11.81,0,17.72,0,2.88,0,4.46-1.64,4.5-4.49,0-1.75-.07-3.51,0-5.25.09-1.51-.48-2-2-2C80.36,110.43,74.61,110.39,68.87,110.39Zm0,27.59h0c4.32,0,8.64,0,13,0a3.46,3.46,0,0,0,3.77-3.31,10.86,10.86,0,0,0,0-2.61c-.22-2.46-1.48-3.6-4-3.62-4,0-8,0-12,0-4.54,0-9.08,0-13.61,0-2.47,0-3.69,1.28-3.76,3.76,0,.54,0,1.09,0,1.64,0,2.87,1.23,4.12,4.08,4.13C60.54,138,64.7,138,68.85,138Zm.07,6.31c-2.57,0-5.13,0-7.69,0-1.19,0-1.59.28-1.18,1.51a9.44,9.44,0,0,0,17.79,0c.37-1.11.08-1.5-1.07-1.48C74.16,144.32,71.54,144.29,68.92,144.29Z"/><path class="cls-2" d="M108.74,32a2.76,2.76,0,0,1-2.65-1.6,2.94,2.94,0,0,1,.29-3.4,71.28,71.28,0,0,1,7.09-7,3,3,0,0,1,4.16.36,3,3,0,0,1,0,4.06c-2.25,2.38-4.61,4.66-7,7A2.66,2.66,0,0,1,108.74,32Z"/><path class="cls-2" d="M118,115.35a3.08,3.08,0,0,1-1.69,2.61,2.7,2.7,0,0,1-3.23-.25c-2.47-2.32-4.88-4.7-7.2-7.16a3,3,0,0,1,.2-3.93,3.1,3.1,0,0,1,4.18-.34c2.45,2.26,4.76,4.66,7.08,7A3,3,0,0,1,118,115.35Z"/><path class="cls-2" d="M7.76,65.28c1.48,0,3,0,4.43,0a3.08,3.08,0,0,1,3.23,2.84,3,3,0,0,1-2.95,3.28,47.88,47.88,0,0,1-9.65,0,3.05,3.05,0,0,1,.35-6.09C4.7,65.25,6.23,65.29,7.76,65.28Z"/><path class="cls-2" d="M31.71,108a3.48,3.48,0,0,1-1.07,2.74c-2.13,2.11-4.25,4.24-6.44,6.3a2.92,2.92,0,0,1-4.26,0,3,3,0,0,1-.07-4.29c2.19-2.3,4.45-4.52,6.73-6.72a3.07,3.07,0,0,1,5.11,2Z"/><path class="cls-2" d="M72.08,7.75c0,1.42,0,2.84,0,4.26a3.1,3.1,0,1,1-6.19.33,49.81,49.81,0,0,1,0-7.53c.05-.71.11-1.42.19-2.12a3,3,0,0,1,3-2.69,2.82,2.82,0,0,1,3,2.67c.1,1.69,0,3.39,0,5.08Z"/><path class="cls-2" d="M22.33,19A3.45,3.45,0,0,1,25,20.05c2.05,2,4.11,4.07,6.13,6.15a3.15,3.15,0,0,1,.26,4.42,3.06,3.06,0,0,1-4.42.17c-2.39-2.23-4.66-4.6-6.91-7a2.61,2.61,0,0,1-.28-3.07A3,3,0,0,1,22.33,19Z"/><path class="cls-2" d="M34.88,69.18c.75-13,6.51-23,17.94-29.54a3.61,3.61,0,0,1,3.89-.24c2.22,1.33,1.93,4.18-.57,5.53a29,29,0,0,0-10,9,27.79,27.79,0,0,0,.3,31.75,34.58,34.58,0,0,0,3.28,3.87c1.55,1.59,1.65,3.48.32,4.83s-3.2,1.14-4.79-.45A33.38,33.38,0,0,1,35.1,71.74C35.05,70.92,35,70.11,34.88,69.18Z"/><path class="cls-2" d="M66.91,41.81c-2.75.07-4.22-1.32-3.83-3.6.29-1.69,1.4-2.44,3.82-2.59,2.2-.14,3.52.54,4,2.07C71.64,40,70,41.74,66.91,41.81Z"/><path class="cls-1" d="M256.68,105.25a26.19,26.19,0,0,1-26.16-26.12c-.1-13.94,12-26,26.06-26a26.08,26.08,0,0,1,.1,52.16Z"/><polyline class="cls-3" points="145.33 48.14 176.8 79.61 146.21 110.2"/><line class="cls-3" x1="176.8" y1="79.61" x2="131.76" y2="79.61"/></g></g></svg>