<svg xmlns="http://www.w3.org/2000/svg" viewBox="0 0 200.62 165.14"><defs><style>.cls-1,.cls-2{fill:none;stroke-width:6.8px;}.cls-1{stroke:#2d2a26;stroke-miterlimit:10;}.cls-2{stroke:#009845;stroke-linecap:round;stroke-linejoin:round;}</style></defs><g id="Capa_2" data-name="Capa 2"><g id="Layer_1" data-name="Layer 1"><path class="cls-1" d="M55.89,35.53l.19-.61c-.6-.65-1.19-1.32-1.82-2-7.52-7.52-15.1-15-22.53-22.61-1.65-1.69-2.64-1.48-4.16.06C19.87,18.23,12.08,26,4.34,33.72c-.42.42-1.14.73-.89,1.81h8.26c4.34,0,4.8.48,4.8,4.78,0,17.76,0,35.52,0,53.28,0,2.25.67,3,2.93,3,6.63-.11,13.26,0,19.89,0,3.52,0,3.53,0,3.53-3.56V40.42c0-4.23.65-4.88,4.79-4.89Z"/><path class="cls-1" d="M104.9,64.41c-3.86,0-7,0-10.2,0-2.94,0-3.75-.85-3.88-3.81,0-.82,0-1.64,0-2.46V6.78c0-3.25-.13-3.37-3.28-3.37q-9.7,0-19.41,0c-3.35,0-3.39,0-3.39,3.48V59.46c0,4.4-.55,4.95-4.95,4.95H51.19a12.35,12.35,0,0,0,.9,1.32Q64.32,78,76.55,90.26c1,1,1.77.85,2.67-.07,2.23-2.28,4.49-4.53,6.75-6.79Z"/><path class="cls-1" d="M160,161.35a26.82,26.82,0,0,1-2.69-.59,32,32,0,0,1-6.9-2.62c-10.83-5.89-17-15-17.5-27.31-.45-11.24-.13-22.51-.12-33.76,0-2.51.55-3,3.07-3,4.71,0,9.42.13,14.06-1.08a32,32,0,0,0,12.65-6.94,5.5,5.5,0,0,1,1.83-1.38,2.64,2.64,0,0,1,2.45.87c.89.81,1.82,1.58,2.79,2.3a32.25,32.25,0,0,0,6.14,3.64,29.24,29.24,0,0,0,5.75,1.86,56.59,56.59,0,0,0,12.33.73c2.91,0,3.38.38,3.38,3.26q0,15.93,0,31.85a33.07,33.07,0,0,1-2.26,12,32.47,32.47,0,0,1-31.85,20.44A17.93,17.93,0,0,1,160,161.35Z"/><path class="cls-2" d="M22.56,110.21v16.43A8.47,8.47,0,0,0,31,135.1h86.46"/><line class="cls-2" x1="115.28" y1="116.84" x2="22.56" y2="116.84"/><polyline class="cls-2" points="129.44 159.77 69.9 159.77 69.9 149.15 94.04 149.15 94.04 135.1"/><path class="cls-2" d="M108.12,17.93h77.45A8.42,8.42,0,0,1,194,26.34v53"/></g></g></svg>