<svg xmlns="http://www.w3.org/2000/svg" viewBox="0 0 194.46 159.19"><defs><style>.cls-1{fill:#009845;stroke:#009845;stroke-miterlimit:10;stroke-width:0.85px;}.cls-2{fill:#2d2a26;}</style></defs><g id="Capa_2" data-name="Capa 2"><g id="Layer_1" data-name="Layer 1"><path class="cls-1" d="M39.22,57.08c5.74,0,11.47,0,17.21,0a1.7,1.7,0,0,0,1.8-1.1,69.48,69.48,0,0,1,13.9-19.43,70.68,70.68,0,0,1,38.8-19.85,47.5,47.5,0,0,1,6.51-.73c.94,0,1.32-.39,1.29-1.35,0-1.94,0-3.88,0-5.82,0-.87-.32-1.15-1.16-1.14-2.93,0-5.86,0-8.79,0-2.42,0-4.06-1.48-4-3.57a3.65,3.65,0,0,1,4-3.68q13.8,0,27.61,0c2.42,0,4,1.52,4,3.62s-1.62,3.62-4.12,3.63c-3,0-5.94,0-8.91,0-1,0-1.4.34-1.37,1.36.06,1.86,0,3.72,0,5.57,0,1,.41,1.32,1.32,1.37a71.23,71.23,0,0,1,54.64,31.47,71.62,71.62,0,0,1,6.21,68.27,71.68,71.68,0,0,1-56.57,42.45,69.94,69.94,0,0,1-35.34-4.44,70.84,70.84,0,0,1-32.33-25.58,63.54,63.54,0,0,1-5.63-9.59,1.91,1.91,0,0,0-2-1.25c-3,.06-6,0-9,0a3.63,3.63,0,0,1-3.45-2,3.59,3.59,0,0,1,3.11-5.24c4.38,0,8.75,0,13.12,0a3.7,3.7,0,0,1,3.48,2.54,64.38,64.38,0,0,0,6.81,12,65.83,65.83,0,0,0,15.11,15,62.34,62.34,0,0,0,29.7,11.42,63.06,63.06,0,0,0,36.17-6.35,63.83,63.83,0,0,0,29-29.15,61.63,61.63,0,0,0,6.39-23.86c1.09-17-3.74-32.25-14.58-45.38a62.35,62.35,0,0,0-39.63-22.57A64.09,64.09,0,0,0,70.55,49.53a58.92,58.92,0,0,0-6.79,11.76A4.56,4.56,0,0,1,59,64.34c-12,0-23.93,0-35.9,0a9.9,9.9,0,0,1-2-.15,3.58,3.58,0,0,1,.91-7.1C27.75,57.09,33.49,57.08,39.22,57.08Z"/><path class="cls-2" d="M90.25,53.25c1.13-.93,2.15-1.8,3.21-2.63a45.89,45.89,0,0,1,32.32-10A45.16,45.16,0,0,1,153,51.77a45.73,45.73,0,0,1,16.15,31.65,46.41,46.41,0,0,1-27.5,46.5c-16,6.89-31.58,5.46-46-4.44C84.32,117.68,78,106.63,76.11,93a46,46,0,0,1,1-17.18c.49-2,1.72-3.08,3.47-3.13a3.49,3.49,0,0,1,3.63,4.41A41.2,41.2,0,0,0,83,88.35a40.37,40.37,0,0,0,4.88,17.82,38.07,38.07,0,0,0,22.08,18.55c12,4,23.55,2.55,34.21-4.4,10-6.52,16-15.82,17.54-27.61,1.87-14.28-2.8-26.38-13.8-35.77-8.31-7.1-18.12-10-29-9.08a37.93,37.93,0,0,0-21.6,9,8.69,8.69,0,0,0-1.81,1.62c2.16-.13,4.16-.31,6.17-.36a3.56,3.56,0,0,1,.61,7.09c-2.45.31-4.93.45-7.39.65-2.22.18-4.44.31-6.66.5-3.26.26-4.78-1.1-4.92-4.34-.22-4.69-.54-9.38-.74-14.08a3.44,3.44,0,0,1,2.7-3.53,3.53,3.53,0,0,1,4,1.82,9.91,9.91,0,0,1,.6,3.75A16.75,16.75,0,0,0,90.25,53.25Z"/><path class="cls-1" d="M44.64,91.26c4.29,0,8.58,0,12.87,0a3.48,3.48,0,0,1,3.43,2.35,3.57,3.57,0,0,1-1,4,3.75,3.75,0,0,1-2.62.93q-12.8,0-25.6,0c-2.45,0-4-1.47-4-3.65s1.59-3.58,4-3.59C36.07,91.25,40.36,91.26,44.64,91.26Z"/><path class="cls-1" d="M47.87,73.91h9.4c2.24,0,3.75,1.3,3.89,3.31S60,80.77,57.7,81.08a12.08,12.08,0,0,1-1.35.07H39.52A12.45,12.45,0,0,1,37.8,81a3.53,3.53,0,0,1-3.23-3.82,3.49,3.49,0,0,1,3.65-3.28C41.44,73.9,44.66,73.91,47.87,73.91Z"/><path class="cls-1" d="M61.88,35.44a3.55,3.55,0,0,1-2.77-5.85q4.14-4.34,8.48-8.48a3.51,3.51,0,0,1,4.83.21,3.55,3.55,0,0,1,.13,4.94c-2.72,2.81-5.52,5.56-8.29,8.32A3.2,3.2,0,0,1,61.88,35.44Z"/><path class="cls-1" d="M28.86,110.07a3.66,3.66,0,0,1,4,5c-.66,1.58-2.3,2.43-4.53,2.25a3.61,3.61,0,0,1-3.54-3,3.48,3.48,0,0,1,1.89-3.8A4.16,4.16,0,0,1,28.86,110.07Z"/><path class="cls-1" d="M12.83,110.08a3.61,3.61,0,0,1,3.7,1.84,3.53,3.53,0,0,1-.14,3.76c-1,1.61-4.33,2.19-6.17,1a3.59,3.59,0,0,1-1.14-4.89A3.69,3.69,0,0,1,12.83,110.08Z"/><path class="cls-1" d="M21,81.14c-2.48,0-4-1.07-4.38-3a3.44,3.44,0,0,1,2.08-3.92,5.52,5.52,0,0,1,4.33.08A3.48,3.48,0,0,1,25,77.87a3.57,3.57,0,0,1-2.65,3.07C21.82,81.06,21.28,81.1,21,81.14Z"/><path class="cls-1" d="M4.72,73.92a3.53,3.53,0,0,1,3.62,1.74,3.5,3.5,0,0,1-.06,3.76c-1,1.78-4.55,2.31-6.43,1a3.63,3.63,0,0,1-.54-5.27A3.8,3.8,0,0,1,4.72,73.92Z"/></g></g></svg>