<?xml version="1.0" encoding="utf-8"?>
<!-- Generator: Adobe Illustrator 26.3.1, SVG Export Plug-In . SVG Version: 6.00 Build 0)  -->
<svg version="1.1" xmlns="http://www.w3.org/2000/svg" xmlns:xlink="http://www.w3.org/1999/xlink" x="0px" y="0px"
	 viewBox="0 0 1535.2 442" style="enable-background:new 0 0 1535.2 442;" xml:space="preserve">
<style type="text/css">
	.st0{opacity:0.15;}
	.st1{fill:none;stroke:#FFFFFF;stroke-width:2;stroke-linecap:round;stroke-miterlimit:10;}
</style>
<g id="Layer_1">
	<g class="st0">
		<g>
			<path class="st1" d="M-0.4,321.6c24.1,0,45.4,8.3,65.2,16.7c21.1,9,110,18.6,132.1,26.3c51.8,18.1,36.2,34.3,86.2,54.8
				c18,7.4,36.7,15.2,57.5,16.6c17.9,1.2,35.9-2.6,51.7-8.5c59.1-22.1,101.9-61.9,154.1-90.5c12.4-6.8,25.5-13.3,40.1-17.5
				c11.3-3.3,23.1-6.6,35.2-6c31.8,1.5,56.8,26.5,83.8,36.8c17.9,6.9,36.8,11.9,56.6,15.4c72.7,12.9,151.2,8.6,224.6,1.9
				c29.3-2.7,58.9-3.4,88.4-2.3c29.1,1,44,5.2,73,7.6c108.6,8.9,154.7,16.8,256.1-18.2c37.7-13,88.4-30.7,131.3-32.8
				c3.5-0.2-3.5-0.4,0-0.5"/>
			<path class="st1" d="M-0.4,313.1c30-0.1,61.4,7.2,90,12.5c31.1,5.7,62.8,10.1,93,17.9c52,13.4,92.7,45.8,149.3,50.8
				c35.1,3.1,70.3-5.8,100.9-18.2c50.4-20.6,93.5-50.3,147.5-66.7c37.3-11.3,64.5-9.8,98.3,5.1c49.1,21.7,100.2,32.5,158.2,35.6
				c59.1,3.1,118.3-0.3,177.1-4.7c39.9-3,66.9-3.7,106,2.6c65,10.5,49.6,23.7,115.7,9.9c57.7-12.1,108.9-38.8,170.5-41.3
				c1.3-0.1,2.5-0.1,3.8-0.1c41.5-1.1,84.3-2.4,125.8-3.4"/>
			<path class="st1" d="M-0.4,303.8c338.5-2.4,253.4,87,577.4-5c22.8-6.5,47.8-12.4,72.7-10.4c19,1.5,36,8,53.1,13.7
				c59.6,19.9,131.8,29.4,197.5,27.1c76.1-2.7,147.2-27.4,223.2-31.1c131.1-6.5,170,9.5,301.5,7.1c36-0.7,74.6-1.2,110.7-1.3"/>
			<path class="st1" d="M-0.4,292.6c334.4-3.6,243.2,84.5,574.1-4.5c44-11.8,84.3-17.7,129.6-6.9c59.9,14.3,117.7,23.4,181.4,25.2
				c54.5,1.6,106.3-12.4,159.2-19.6c55.4-7.5,111.8-11.8,168.2-12.8c19.3-0.3,39-0.3,57.9,3c19.1,3.4,36.4,11.3,55,15.9
				c30.8,7.6,64.7,4.7,96.4,2.4c37.1-2.7,77.2-3.5,114.3-2.9"/>
			<path class="st1" d="M-0.4,284.7c253.7,48.2,233.2,79.1,570.9-7.2c36.6-9.3,68.1-25.9,104.6-35.8c31.1-8.4,62.5-15.3,92.7-25.4
				c29.9-9.9,60.2-20.7,93.5-23.2c31.6-2.4,63.4,2.9,93.3,10.3c30,7.4,58.8,17.1,88.9,24c66.2,15.2,125.2,15,194.3,18.3
				c71.6,3.5,60.6,6.9,131.8,14.1c54.5,5.5,113.4,13.3,166,24.9"/>
			<path class="st1" d="M-0.4,258.4c326.1-6.1,210.2-67.6,567.6,8.4c15.8,3.4,33.3,8.5,49.7,4.2c13.7-3.6,24.2-11.7,37.3-16.3
				c53.7-18.7,117.6-21.4,176.5-22.8c44.5-1,85.1,1.8,127.6,11.4c40.4,9.2,80.6,21,123.6,22.1c75.8,1.9,137.9,0.1,213.6-3.2
				c68.6-3,55.2-10,123.9-9.4c2.3,0,4.6,0,6.9,0.1c64.4,3,109.2,5.5,109.2,5.5"/>
			<path class="st1" d="M-0.4,241.3C134,257.4,213.3,338,563.9,256.2c216.6-50.6,213.5-319.7,473.7-149.8
				c166.5,108.8,497.9,134.9,497.9,134.9"/>
			<path class="st1" d="M-0.4,224.2c317.9-8.5,204.2,101.2,561.1,21.3c235.1-52.7,232.3-325.7,507.3-169.2
				c213.3,121.4,467.6,148,467.6,148"/>
			<path class="st1" d="M-0.4,216.3c297.8,63.3,194.7,96.7,557.8,18.5c98.5-21.2,180.2-67.5,262.9-108.9
				c52.1-26,106.5-52.3,168.7-64.5c53.5-10.5,106.4,5.5,153.4,22.4c50.4,18.2,90.2,42,131,69.3c40.7,27.2,84,41.8,139.5,47.2
				c37.1,3.6,86.6,7.6,122.6,15.7c1.3,0.3-1.3,0.6,0,0.9"/>
			<path class="st1" d="M-0.4,200.1c309.6-10.9,185.2,100.8,554.5,24.1c272.2-56.5,173.8-62.8,524.1-45.5
				c329.6,16.3,457.4,21.1,457.4,21.1"/>
			<path class="st1" d="M-0.4,192.5c305.5-12.1,175.8,96.2,551.3,21.1c290.9-58.2,190.2-79,539.1-55.9
				c325.8,21.6,445.7,34.8,445.7,34.8"/>
			<path class="st1" d="M-0.4,175.4c33.7-1.5,71-0.4,104.5,0.1c49.3,0.7,88.5,22.5,135.2,30.1c24.9,4,50.7,3.3,76.2,2.6
				c21.3-0.6,42.6-0.5,63.9-1.5c21.9-1,43.2-2.9,65.1-1.9c28.1,1.3,55.2,4,83.3,1c28.4-3,55.8-9.5,83-16c29.2-7,59.7-12.9,88.2-21.2
				c28.3-8.2,56.9-16.4,85.5-24.1c25.7-6.9,52-12.5,79.3-15.3c37.2-3.8,75.2-3.3,112.6-1.8c46.5,1.8,79.1,5.4,125.3,9.2
				c322.1,26.8,434,38.7,434,38.7"/>
			<path class="st1" d="M-0.4,158.3c40.7,5.8,300.5-70.4,413.3-9.2c17.1,9.3,36.3,17,55.5,23.7c31.1,10.8,61.7,14.3,95.7,8.6
				c23.5-4,46.5-10.1,69.6-15c24.3-5.1,47.8-12.1,71.5-18.5c32.5-8.8,64.3-18.8,96.9-27.4c27.4-7.3,55.4-12.8,84.6-15.2
				c40.6-3.4,81.8-1.9,122.4,0.6c39.5,2.4,65,6,104.2,9.9c318.4,32,422.3,42.6,422.3,42.6"/>
			<path class="st1" d="M-0.4,151C292.7,135.2,67.1,369.8,461,298.6C808,236,710.3-78,1023.9,30.6
				C1402.3,161.7,1535.6,151,1535.6,151"/>
			<path class="st1" d="M-0.4,143.8c123.4-83,138,97.2,538.2,27.2c365.7-64,266.5-180.5,543.9-30.6c254.6,137.5,453.9,3.3,453.9,3.3
				"/>
			<path class="st1" d="M-0.4,124.2c158.9-79.5,115.7,191.8,522,123c384.5-65.1,265.4-124.9,606.8-71.9
				c307.3,47.1,407.1-51.1,407.1-51.1"/>
			<path class="st1" d="M-0.4,80.3c150,11.5,253.5-10.1,367.4,66.9c23.3,15.7,52.6,28.3,82.1,37.3c28.5,8.7,60.1,12.4,91.1,10.9
				c29.1-1.3,56.3-8.3,83.4-15.1c28.5-7.1,56.5-15.4,83.5-25c38.1-13.5,73.8-30,107-48.8C839.9,91.9,864,75.8,889.6,61
				c22.7-13.2,47.2-25.1,74.9-32.4c33.5-8.8,69.6-10.7,105.1-9.1c35.2,1.6,56.3,6.3,90.6,12.3c303.6,52.4,375.5,48.5,375.5,48.5"/>
			<path class="st1" d="M496.4,145"/>
			<path class="st1" d="M-0.4,321.6c24.1,0,45.4,8.3,65.2,16.7c21.1,9,110,18.6,132.1,26.3c51.8,18.1,36.2,34.3,86.2,54.8
				c18,7.4,36.7,15.2,57.5,16.6c17.9,1.2,35.9-2.6,51.7-8.5c59.1-22.1,101.9-61.9,154.1-90.5c12.4-6.8,25.5-13.3,40.1-17.5
				c11.3-3.3,23.1-6.6,35.2-6c31.8,1.5,56.8,26.5,83.8,36.8c17.9,6.9,36.8,11.9,56.6,15.4c72.7,12.9,151.2,8.6,224.6,1.9
				c29.3-2.7,58.9-3.4,88.4-2.3c29.1,1,44,5.2,73,7.6c108.6,8.9,154.7,16.8,256.1-18.2c37.7-13,88.4-30.7,131.3-32.8
				c3.5-0.2-3.5-0.4,0-0.5"/>
			<path class="st1" d="M-0.4,313.1c30-0.1,61.4,7.2,90,12.5c31.1,5.7,62.8,10.1,93,17.9c52,13.4,92.7,45.8,149.3,50.8
				c35.1,3.1,70.3-5.8,100.9-18.2c50.4-20.6,93.5-50.3,147.5-66.7c37.3-11.3,64.5-9.8,98.3,5.1c49.1,21.7,100.2,32.5,158.2,35.6
				c59.1,3.1,118.3-0.3,177.1-4.7c39.9-3,66.9-3.7,106,2.6c65,10.5,49.6,23.7,115.7,9.9c57.7-12.1,108.9-38.8,170.5-41.3
				c1.3-0.1,2.5-0.1,3.8-0.1c41.5-1.1,84.3-2.4,125.8-3.4"/>
			<path class="st1" d="M-0.4,303.8c338.5-2.4,253.4,87,577.4-5c22.8-6.5,47.8-12.4,72.7-10.4c19,1.5,36,8,53.1,13.7
				c59.6,19.9,131.8,29.4,197.5,27.1c76.1-2.7,147.2-27.4,223.2-31.1c131.1-6.5,170,9.5,301.5,7.1c36-0.7,74.6-1.2,110.7-1.3"/>
			<path class="st1" d="M-0.4,292.6c334.4-3.6,243.2,84.5,574.1-4.5c44-11.8,84.3-17.7,129.6-6.9c59.9,14.3,117.7,23.4,181.4,25.2
				c54.5,1.6,106.3-12.4,159.2-19.6c55.4-7.5,111.8-11.8,168.2-12.8c19.3-0.3,39-0.3,57.9,3c19.1,3.4,36.4,11.3,55,15.9
				c30.8,7.6,64.7,4.7,96.4,2.4c37.1-2.7,77.2-3.5,114.3-2.9"/>
			<path class="st1" d="M-0.4,284.7c253.7,48.2,233.2,79.1,570.9-7.2c36.6-9.3,68.1-25.9,104.6-35.8c31.1-8.4,62.5-15.3,92.7-25.4
				c29.9-9.9,60.2-20.7,93.5-23.2c31.6-2.4,63.4,2.9,93.3,10.3c30,7.4,58.8,17.1,88.9,24c66.2,15.2,125.2,15,194.3,18.3
				c71.6,3.5,60.6,6.9,131.8,14.1c54.5,5.5,113.4,13.3,166,24.9"/>
			<path class="st1" d="M-0.4,258.4c326.1-6.1,210.2-67.6,567.6,8.4c15.8,3.4,33.3,8.5,49.7,4.2c13.7-3.6,24.2-11.7,37.3-16.3
				c53.7-18.7,117.6-21.4,176.5-22.8c44.5-1,85.1,1.8,127.6,11.4c40.4,9.2,80.6,21,123.6,22.1c75.8,1.9,137.9,0.1,213.6-3.2
				c68.6-3,55.2-10,123.9-9.4c2.3,0,4.6,0,6.9,0.1c64.4,3,109.2,5.5,109.2,5.5"/>
			<path class="st1" d="M-0.4,241.3C134,257.4,213.3,338,563.9,256.2c216.6-50.6,213.5-319.7,473.7-149.8
				c166.5,108.8,497.9,134.9,497.9,134.9"/>
			<path class="st1" d="M-0.4,224.2c317.9-8.5,204.2,101.2,561.1,21.3c235.1-52.7,232.3-325.7,507.3-169.2
				c213.3,121.4,467.6,148,467.6,148"/>
			<path class="st1" d="M-0.4,216.3c297.8,63.3,194.7,96.7,557.8,18.5c98.5-21.2,180.2-67.5,262.9-108.9
				c52.1-26,106.5-52.3,168.7-64.5c53.5-10.5,106.4,5.5,153.4,22.4c50.4,18.2,90.2,42,131,69.3c40.7,27.2,84,41.8,139.5,47.2
				c37.1,3.6,86.6,7.6,122.6,15.7c1.3,0.3-1.3,0.6,0,0.9"/>
			<path class="st1" d="M-0.4,200.1c309.6-10.9,185.2,100.8,554.5,24.1c272.2-56.5,173.8-62.8,524.1-45.5
				c329.6,16.3,457.4,21.1,457.4,21.1"/>
			<path class="st1" d="M-0.4,192.5c305.5-12.1,175.8,96.2,551.3,21.1c290.9-58.2,190.2-79,539.1-55.9
				c325.8,21.6,445.7,34.8,445.7,34.8"/>
			<path class="st1" d="M-0.4,175.4c33.7-1.5,71-0.4,104.5,0.1c49.3,0.7,88.5,22.5,135.2,30.1c24.9,4,50.7,3.3,76.2,2.6
				c21.3-0.6,42.6-0.5,63.9-1.5c21.9-1,43.2-2.9,65.1-1.9c28.1,1.3,55.2,4,83.3,1c28.4-3,55.8-9.5,83-16c29.2-7,59.7-12.9,88.2-21.2
				c28.3-8.2,56.9-16.4,85.5-24.1c25.7-6.9,52-12.5,79.3-15.3c37.2-3.8,75.2-3.3,112.6-1.8c46.5,1.8,79.1,5.4,125.3,9.2
				c322.1,26.8,434,38.7,434,38.7"/>
			<path class="st1" d="M-0.4,158.3c40.7,5.8,300.5-70.4,413.3-9.2c17.1,9.3,36.3,17,55.5,23.7c31.1,10.8,61.7,14.3,95.7,8.6
				c23.5-4,46.5-10.1,69.6-15c24.3-5.1,47.8-12.1,71.5-18.5c32.5-8.8,64.3-18.8,96.9-27.4c27.4-7.3,55.4-12.8,84.6-15.2
				c40.6-3.4,81.8-1.9,122.4,0.6c39.5,2.4,65,6,104.2,9.9c318.4,32,422.3,42.6,422.3,42.6"/>
			<path class="st1" d="M-0.4,151C292.7,135.2,67.1,369.8,461,298.6C808,236,710.3-78,1023.9,30.6
				C1402.3,161.7,1535.6,151,1535.6,151"/>
			<path class="st1" d="M-0.4,143.8c123.4-83,138,97.2,538.2,27.2c365.7-64,266.5-180.5,543.9-30.6c254.6,137.5,453.9,3.3,453.9,3.3
				"/>
			<path class="st1" d="M-0.4,124.2c158.9-79.5,115.7,191.8,522,123c384.5-65.1,265.4-124.9,606.8-71.9
				c307.3,47.1,407.1-51.1,407.1-51.1"/>
			<path class="st1" d="M-0.4,80.3c150,11.5,253.5-10.1,367.4,66.9c23.3,15.7,52.6,28.3,82.1,37.3c28.5,8.7,60.1,12.4,91.1,10.9
				c29.1-1.3,56.3-8.3,83.4-15.1c28.5-7.1,56.5-15.4,83.5-25c38.1-13.5,73.8-30,107-48.8C839.9,91.9,864,75.8,889.6,61
				c22.7-13.2,47.2-25.1,74.9-32.4c33.5-8.8,69.6-10.7,105.1-9.1c35.2,1.6,56.3,6.3,90.6,12.3c303.6,52.4,375.5,48.5,375.5,48.5"/>
		</g>
	</g>
</g>
<g id="Layer_3">
</g>
<g id="Layer_2">
</g>
</svg>
