<svg xmlns="http://www.w3.org/2000/svg" viewBox="0 0 513.83 354.01"><defs><style>.cls-1{fill:#fff;}</style></defs><g id="Capa_2" data-name="Capa 2"><g id="Layer_1" data-name="Layer 1"><path class="cls-1" d="M128.11,44.68V154.42H97.76V92.15L77.37,154.42H51.06L30.67,92.15v62.27H0V44.68H37.52L64.6,116,90.91,44.68Z"/><path class="cls-1" d="M214.66,136.05H175.59l-6.07,18.37H137.3L177.61,44.68H213l40.16,109.74H220.73Zm1.71-113.32L177.46,38.14V17.59L216.37,0ZM207,113,195.2,77.21l-12,35.8Z"/><path class="cls-1" d="M339.66,139.32A32,32,0,0,1,326,151.15q-9,4.36-21.63,4.36-19.15,0-31.53-9.18t-13.46-26.16h32.53q.47,5.76,3.58,8.57a11,11,0,0,0,7.63,2.8,9.09,9.09,0,0,0,6.3-2,7.29,7.29,0,0,0,2.26-5.76,8.54,8.54,0,0,0-4.51-7.7q-4.51-2.73-14.32-6a137.16,137.16,0,0,1-17.2-7,32.23,32.23,0,0,1-11.68-10.27Q259,85.92,259,75.19a29.55,29.55,0,0,1,5.29-17.67A32.81,32.81,0,0,1,278.8,46.31a54,54,0,0,1,20.86-3.81q19,0,30.27,9t12.38,25.14H309.46c-.41-3.43-1.48-6-3.19-7.63a9.31,9.31,0,0,0-6.77-2.49,7.9,7.9,0,0,0-5.6,1.87,7.24,7.24,0,0,0-2,5.6q0,4.66,4.44,7.32a80.14,80.14,0,0,0,13.93,5.91,139.42,139.42,0,0,1,17.28,7.32,34.12,34.12,0,0,1,11.83,10.43q5,6.85,5,17.75A30.71,30.71,0,0,1,339.66,139.32Z"/><path class="cls-1" d="M73.48,224.47l-4.58-6.84a20.27,20.27,0,0,1-3.83.35,21.21,21.21,0,0,1-10.55-2.7,19.77,19.77,0,0,1-7.59-7.51,22.45,22.45,0,0,1,0-21.68,19.77,19.77,0,0,1,7.59-7.51,22,22,0,0,1,21.13,0,19.64,19.64,0,0,1,7.54,7.51,22.63,22.63,0,0,1,.73,20.2,20.21,20.21,0,0,1-5.63,7.16l8.76,11ZM58.23,204.53a8.64,8.64,0,0,0,6.84,2.84,8.6,8.6,0,0,0,6.79-2.84,11.13,11.13,0,0,0,2.49-7.6,11.25,11.25,0,0,0-2.46-7.68,8.59,8.59,0,0,0-6.82-2.81,8.65,8.65,0,0,0-6.84,2.81,13,13,0,0,0,0,15.28Z"/><path class="cls-1" d="M102.18,176.52V200a8.27,8.27,0,0,0,1.54,5.36,5.64,5.64,0,0,0,4.66,1.88,5.8,5.8,0,0,0,4.73-1.91A8.11,8.11,0,0,0,114.7,200V176.52h11.37V200a19.41,19.41,0,0,1-2.35,9.85,15.23,15.23,0,0,1-6.41,6.12,20,20,0,0,1-9.16,2.06,19.3,19.3,0,0,1-9-2A14.38,14.38,0,0,1,93,209.86a20.53,20.53,0,0,1-2.2-9.91V176.52Z"/><path class="cls-1" d="M143.52,185.62v6.79H156.8v8.64H143.52v7.42h15v9.1H132.1v-41h26.43v9.1Z"/><path class="cls-1" d="M185.61,179.94v23.42a8.28,8.28,0,0,0,1.54,5.37,5.67,5.67,0,0,0,4.66,1.88,5.82,5.82,0,0,0,4.73-1.91,8.12,8.12,0,0,0,1.59-5.34V179.94H209.5v23.42a19.42,19.42,0,0,1-2.35,9.86,15.23,15.23,0,0,1-6.41,6.12,20,20,0,0,1-9.16,2.06,19.3,19.3,0,0,1-9-2,14.49,14.49,0,0,1-6.12-6.09,20.54,20.54,0,0,1-2.2-9.92V179.94Z"/><path class="cls-1" d="M253.45,221H242L227,198.09V221H215.53V180H227L242,203.19V180h11.43Z"/><path class="cls-1" d="M285.68,214.15H271.13L268.87,221h-12l15-40.88H285L300,221H287.94Zm-2.84-8.58-4.41-13.34L274,205.57Z"/><path class="cls-1" d="M86.28,286.2c9.67-12.6,19.5-23.47,27.09-23.47,3.45,0,6.39,2.07,8.63,6.91,7.59,17.42,16.74,24.15,27.26,24.15,13.63,0,29.85-11.56,48.31-25a2.73,2.73,0,0,1,2.25-1,3.52,3.52,0,0,1,3.27,3.28,2.54,2.54,0,0,1-1.55,2.24c-13.8,10.87-34.51,26.4-53.31,26.4-11.74,0-22.78-6-30.72-23.64-.51-1.55-1.38-2.24-2.41-2.24-8.8,0-34.16,35.54-34.51,39.16-1,2.25-4.31,3.46-7.07,3.46-2.42,0-4.49-1-4.49-3.28v-.69l16.74-67A6.18,6.18,0,0,1,98,246.69V247Z"/><path class="cls-1" d="M200.16,296.72c0,3.63,1.21,5.87,3.8,5.87.34,0,.86-.17,1.2-.17,10.36-2.76,37.44-41.07,38-50.73.52-3.45,2.24-4.83,4-4.83,3.11,0,6.73,4,6.73,8.45,0,.18-3.11,13.29-3.11,24.85,0,7.25,1.21,13.63,5.18,15.7a6.47,6.47,0,0,0,2.76.52c13.8,0,51.94-30.89,52.11-31.06a5.08,5.08,0,0,1,2.41-.86,3.9,3.9,0,0,1,3.63,4.14,7.78,7.78,0,0,1-.35,1.73c0,.17-38.13,30.54-57.28,30.54a11.35,11.35,0,0,1-5.52-1.21c-7.42-4-9.32-14.5-9.32-24.67V273.6c-9.14,15.88-26.4,38.65-40,38.65a10.2,10.2,0,0,1-5-1.2c-5.87-3.11-8.11-9.49-8.11-17.26,0-21.05,16-51.93,16-52.11a6.35,6.35,0,0,1,6.21-4.48c4.15,0,8.46,3.28,8.46,7.76a6.59,6.59,0,0,1-.17,1.73C208.44,266.7,200.16,286.89,200.16,296.72Z"/><path class="cls-1" d="M325.59,250.66l-1.38,1.55c-4.31,20-6.9,34.33-8.62,44.34,8.62-23.29,23.81-52.45,47.79-52.45h.35c15.18,1.38,19.84,12.25,19.84,24a60.77,60.77,0,0,1-.87,9.67c12.08-5.7,23.47-8.8,37.62-10.87h.34a2.8,2.8,0,0,1,2.76,3.1,2.53,2.53,0,0,1-1.89,2.76c-14.84,2.25-26.75,3.28-39.17,9.49-2.93,16.91-8.63,34-18.81,47.8-10,13.28-23.12,24-32.44,24a9.07,9.07,0,0,1-8.1-4.49,13.89,13.89,0,0,1-1.21-6c0-21.22,35.37-53.31,51.41-60.73a48.55,48.55,0,0,0,.87-9.66c0-9.84-2.59-21.57-11.56-21.57h-.35c-32.61,0-49,65.91-49.17,66.26a3.84,3.84,0,0,1-3.11,2.06,2.37,2.37,0,0,1-2.41-2.24,43,43,0,0,1-.35-6.73c0-8.8,1.21-27.6,9-62.46,7.42-34,29.85-91.1,55.22-116.46,3.27-3.28,7.59-5.18,10.87-5.18a7.1,7.1,0,0,1,2.76.52,9.3,9.3,0,0,1,2.59,2.59c1.2,1.9,1.72,4.48,1.72,7.76,0,9.84-5.69,25.19-14.32,41.76C361.48,205.11,342,232.71,325.59,250.66ZM324,344.52a6.19,6.19,0,0,0,1.38,4,5.77,5.77,0,0,0,4.83,2.58c6.56,0,15.7-10,23.64-21.22,10.53-15,14.49-25.36,19-42.79C361.48,291.38,324,329.34,324,344.52Zm41.58-168.23c2.42-4.66,17.95-32.78,17.95-42.79a5.85,5.85,0,0,0-.52-2.59,1.58,1.58,0,0,0-.86-.17c-1.38,0-3.45,1.38-5.87,4-20.19,20.19-40.55,70-46.93,97C344.57,211.84,353.54,199.76,365.62,176.29Z"/><path class="cls-1" d="M450.68,255.31c0,14.5-23.29,23.82-28.12,25.71,0,1-.17,2.25-.17,3.45,0,4.15.69,9,2.76,12.08,2.24,3.45,6,5,10.87,5,23.81,0,71.43-35.89,71.6-36.07a3.36,3.36,0,0,1,2.07-.69,4.33,4.33,0,0,1,4.14,4.15,3.2,3.2,0,0,1-1.38,2.41c-.34.17-46.76,33.65-75.05,33.65-7.42,0-13.63-2.25-17.43-8.11a26.2,26.2,0,0,1-4.49-15c0-9.67,4.84-18.81,10.53-25.54a36.72,36.72,0,0,1,9.66-8.11,13.81,13.81,0,0,1,6.9-2.07,7.7,7.7,0,0,1,7.94,7.25C450.51,254.11,450.68,254.62,450.68,255.31Zm-10.52,0a.46.46,0,0,0-.52-.51c-3.45.51-6.73,6.9-14.67,17.25C436,262.56,440.16,256.87,440.16,255.31Z"/></g></g></svg>