<svg xmlns="http://www.w3.org/2000/svg" viewBox="0 0 503.46 202.33"><defs><style>.cls-1{fill:#2d2a26;}.cls-2{fill:#009845;}</style></defs><g id="Capa_2" data-name="Capa 2"><g id="Layer_1" data-name="Layer 1"><path class="cls-1" d="M0,17.67H14.07L33.71,63.59,53.36,17.67h14V79.43H55V39.26L38.4,79.43H29L12.39,39.26V79.43H0Z"/><path class="cls-1" d="M98.75,29.62c7.88,0,13.28,3.71,16.2,7.78v-7h12.47v49H115V72.27c-2.92,4.24-8.5,8-16.28,8-12.39,0-22.3-10.18-22.3-25.48S86.28,29.62,98.75,29.62Zm3.19,10.88C95.3,40.5,89,45.45,89,54.75s6.28,14.6,12.92,14.6c6.81,0,13-5.14,13-14.43S108.75,40.5,101.94,40.5Z"/><path class="cls-1" d="M139.55,14h12.39V51.21l16.46-20.8h16.1L162.91,55l21.77,24.42H168.57L151.94,58.55V79.43H139.55Z"/><path class="cls-1" d="M212.64,80.23c-14.24,0-24.6-9.91-24.6-25.31s10.09-25.3,24.6-25.3c14.16,0,24.16,9.64,24.16,24.24a28.5,28.5,0,0,1-.36,4.78H200.61C201.23,65.9,206.18,70,212.38,70c5.31,0,8.23-2.66,9.82-5.93h13.36C232.9,73.06,224.76,80.23,212.64,80.23ZM200.7,50.32H224c-.18-6.46-5.31-10.53-11.68-10.53C206.36,39.79,201.67,43.6,200.7,50.32Z"/><path class="cls-2" d="M267.09,0h22.08V79.43H267.09Z"/><path class="cls-2" d="M297.4,0h64.22V17.58H340.44V79.43H318.36V17.58h-21Z"/><path class="cls-1" d="M123.84,111.27c0-.53-.18-.88-.71-.88a4.07,4.07,0,0,0-1.85.62c-1.77.88-4.87,3.63-7.61,7.25a11.41,11.41,0,0,0-2.57,7c0,5.76,5.22,11,9.47,17.88a159.23,159.23,0,0,1,24.15-14.6,178.23,178.23,0,0,1,18-8,3.36,3.36,0,0,1,3.09,3.45,2.84,2.84,0,0,1-1.32,2.47c-6.11.71-11.51,3.1-16.55,5.58-9.11,4.42-17.61,8.23-25.84,14.25a20.63,20.63,0,0,1,2.3,9.82c0,13.27-10,28.31-21.85,28.31a15.1,15.1,0,0,1-3.45-.44c-3.54-.8-5-4.25-5-7.79a14.51,14.51,0,0,1,.62-3.89c1.86-5.93,9.29-16.19,24.24-27.43-3.36-5.66-12.47-12.83-12.47-21.15a12.75,12.75,0,0,1,2.83-7.78c3.27-4.43,8.41-7.08,10.35-8.06a12.69,12.69,0,0,1,4.87-1.24c2.39,0,3.45,1.33,3.72,3.46a7.82,7.82,0,0,1,.08,1.41c0,5.4-2.92,12.21-2.92,12.3a3.56,3.56,0,0,1-3,1.33c-1.86,0-3.81-1.15-3.81-3.1a2.46,2.46,0,0,1,.09-.8C118.71,121.1,123.84,113.75,123.84,111.27Zm-25.75,62a9,9,0,0,0-.44,2.66,3,3,0,0,0,2.21,3.18,7.52,7.52,0,0,0,2.48.36c9.56,0,19.11-14.52,19.11-25.66a14.43,14.43,0,0,0-1.24-6.29C106.85,157.82,99.77,168.08,98.09,173.3Z"/><path class="cls-1" d="M164.73,136.58c0,1.86.53,3.36,1.76,4.16a3.39,3.39,0,0,0,2,.44c10.35,0,49.55-16.9,49.55-16.9a3.13,3.13,0,0,1,1.95-.71,2.66,2.66,0,0,1,2.74,2.13.65.65,0,0,1-.18.53c-.08,0-40.88,17.78-55.65,17.78-2.21,0-3.9-.35-4.69-1.32-2.48-1.6-3.37-4.61-3.37-8,0-6.19,3-13.71,4.61-16.46a3.45,3.45,0,0,1,3.27-2.12c1.86,0,3.72,1.33,3.72,3.19a2.37,2.37,0,0,1-.09.79S164.73,130.39,164.73,136.58Zm10.7-34a4.72,4.72,0,0,1-.35,1.86,4.17,4.17,0,0,1-3.54,3.1,2.43,2.43,0,0,1-.8-.09,3.24,3.24,0,0,1-1.86-3.19,4.48,4.48,0,0,1,.36-1.85c.71-1.86,2.21-3.1,3.63-3.1a1.88,1.88,0,0,1,.7.09A3.24,3.24,0,0,1,175.43,102.6Z"/><path class="cls-1" d="M220.74,144.81c0,.44.09.71.35.71a.58.58,0,0,0,.45-.18c14-17.78,21.14-35.92,29.73-35.92a7.71,7.71,0,0,1,3.27.79,5.38,5.38,0,0,1,2.12,4.43c0,3.45-2.21,8.23-4.86,16.37-1.51,3.09-3.9,7.34-3.9,8.05l.09.09c1.06,0,10.09-12,15.58-12H264c6.72,2.57,2.74,15.84,10.35,15.84a7.07,7.07,0,0,0,1.33-.09c4.42-.71,16.28-9.38,22.92-18.23a2,2,0,0,1,1.77-1c1.32,0,2.74,1.15,2.74,2.12a1.23,1.23,0,0,1-.18.62c-9,9.65-22.12,17.08-27.16,17.88a11.8,11.8,0,0,1-1.68.17c-8.76,0-8.32-13.18-11-13.18-.17,0-.26.09-.44.18-6.19,3.27-13.09,15.57-16.9,16a10.52,10.52,0,0,1-1.68.09c-2.39,0-4.69-.79-4.69-3.45a6.26,6.26,0,0,1,.26-1.68c0-.09,11-22.92,11-29.29a1.94,1.94,0,0,0-.36-1.42h-.35c-6.19,0-21.86,36.64-31.15,41-3.09-.08-5.13-.44-5.13-4.86a31.29,31.29,0,0,1,1-6.91c3.28-13.09,8.23-27.6,9.47-30.17.27-1.68,2.74-2.56,5-2.56,1.94,0,3.71.61,3.71,1.94,0,.18-.09.36-.09.53C232.68,110.74,220.74,139.85,220.74,144.81Z"/><path class="cls-1" d="M295.69,148.88c2.92-6.46,14-36.81,28.41-36.81a11.91,11.91,0,0,1,4.15.8c3.37,2.39,4.69,7.34,4.69,11.68a22.45,22.45,0,0,1-.35,3.62c7.52-2.38,14.87-4.24,22.21-4.24,1,0,1.95,0,3,.09.79.08,1.06.7,1.06,1.41,0,1.15-.88,2.57-1.95,2.57h-.17a62,62,0,0,0-7-.44,50.22,50.22,0,0,0-17.35,3.18c-3,8.67-11.06,19.38-21.15,20.44a10.48,10.48,0,0,1-1.59.09,7,7,0,0,1-4.78-1.5,2.66,2.66,0,0,1-1.24-2.22c0-6.1,22-16.37,24.69-17.87.09-.18.18-.44.27-.62a16,16,0,0,0,.18-2.3c0-3.45-1-8.5-3-9.91a6.9,6.9,0,0,0-4.34-1.68c-15.84,0-32.74,64-37.25,82.47a3.24,3.24,0,0,0-.09,1c0,.8.09,1.86.09,2.57v.53c-.09.35-1,.62-1.86.62-1.15,0-2.57-.45-2.57-1.77a1.14,1.14,0,0,1,.09-.54c6-29.81,12.13-52.29,20.27-82.46l-.27-5.76a3.44,3.44,0,0,1,3.63-3c1.5,0,2.92.79,2.92,1.94v.36Zm31.59-16.19c-7.7,2.74-21.32,11.59-21.32,14.51a.9.9,0,0,0,.35.62,2.73,2.73,0,0,0,2.39,1c.35,0,.62-.09,1.06-.09C317.37,148,324.27,139.41,327.28,132.69Z"/><path class="cls-1" d="M351.35,171a15.77,15.77,0,0,0,1,6.2,4.18,4.18,0,0,0,3.81,2.74c13,0,46.37-53.54,46.45-53.71a3.46,3.46,0,0,1,2.66-1.86c1,0,1.68.71,1.68,1.95v.08c-.09.18-35,54.78-51.06,54.78-2.38,0-4.33-1.24-5.75-4.07-.88-1.86-1.24-4.78-1.24-8.32,0-23.18,17.17-76.63,28.94-92.82a85.23,85.23,0,0,1,8.05-11.77c2.74-3.1,5.22-4.87,7.26-4.87h.09c1.5.09,2.65,1.06,3.36,2.92a10.25,10.25,0,0,1,.53,3.45c0,15.93-25.22,53.27-35.93,60.44C354.63,147.11,351.35,162.42,351.35,171ZM393.74,64.46a3.27,3.27,0,0,0-.18-1.06c-.27-.53-.44-.79-.62-.79h-.09c-.88,0-2.48,1.41-4.51,3.71a78.16,78.16,0,0,0-7.7,11.24c-5.49,9.38-12.56,28.94-16.72,40.62C369.4,113.13,393.74,73.84,393.74,64.46Z"/><path class="cls-1" d="M419.22,119.24c0,7.43-11.94,12.21-14.42,13.18,0,.53-.09,1.15-.09,1.77a11.91,11.91,0,0,0,1.42,6.2c1.15,1.77,3.09,2.56,5.57,2.56,12.21,0,36.63-18.4,36.72-18.49a1.7,1.7,0,0,1,1.07-.36,2.22,2.22,0,0,1,2.12,2.13,1.68,1.68,0,0,1-.71,1.24c-.18.09-24,17.25-38.49,17.25-3.81,0-7-1.15-8.94-4.16a13.45,13.45,0,0,1-2.3-7.7c0-5,2.48-9.64,5.4-13.09a18.62,18.62,0,0,1,4.95-4.16,7.06,7.06,0,0,1,3.54-1.06,4,4,0,0,1,1.77.35,3.88,3.88,0,0,1,2.3,3.36C419.13,118.62,419.22,118.88,419.22,119.24Zm-5.39,0a.24.24,0,0,0-.27-.27c-1.77.27-3.45,3.54-7.52,8.85C411.7,123,413.83,120,413.83,119.24Z"/><path class="cls-1" d="M473.73,136.85V137c0,1.51-1.5,2.13-3.27,2.13-2.48,0-5.49-1.33-5.49-3.37a2,2,0,0,1,.18-.7l1-3.45c.44-2.13,1.68-2.92,3-2.92,2.3,0,4.87,2.12,4.87,3.09V132Zm2.3-17.52.09,1.68a2.16,2.16,0,0,1-2.12,1c-1.86,0-4.34-1.15-4.34-2.3l.09-.18c7.08-24.6,24.6-68.31,24.6-68.48.71-1.42,2.3-2,4.07-2,2.48,0,5,1.15,5,2.92a2.19,2.19,0,0,1-.35,1.15C502.05,54.2,476,94.46,476,119.33Z"/></g></g></svg>